PaperMono.glyphspackage
{
color = 9;
glyphname = exclam;
layers = (
{
layerId = "574EE4B9-5C1A-4E7E-9985-C08FACB65BD8";
name = Regular;
shapes = (
{
closed = 1;
nodes = (
(347,240,l),
(357,740,l),
(263,740,l),
(273,240,l)
);
},
{
closed = 1;
nodes = (
(354,-12,o),
(382,18,o),
(382,60,cs),
(382,102,o),
(354,132,o),
(310,132,cs),
(266,132,o),
(238,102,o),
(238,60,cs),
(238,18,o),
(266,-12,o),
(310,-12,cs)
);
}
);
width = 620;
}
);
unicode = 33;
}
{
color = 5;
glyphname = quotedbl;
layers = (
{
background = {
shapes = (
{
closed = 1;
nodes = (
(458,388,l),
(470,778,l),
(366,778,l),
(378,388,l)
);
},
{
closed = 1;
nodes = (
(242,388,l),
(254,778,l),
(150,778,l),
(162,388,l)
);
}
);
};
layerId = "574EE4B9-5C1A-4E7E-9985-C08FACB65BD8";
shapes = (
{
closed = 1;
nodes = (
(246,408,l),
(246,778,l),
(154,778,l),
(154,408,l)
);
},
{
closed = 1;
nodes = (
(466,408,l),
(466,778,l),
(374,778,l),
(374,408,l)
);
}
);
width = 620;
}
);
unicode = 34;
}
{
color = 1;
glyphname = numbersign;
layers = (
{
layerId = "574EE4B9-5C1A-4E7E-9985-C08FACB65BD8";
shapes = (
{
closed = 1;
nodes = (
(379,0,l),
(511,740,l),
(439,740,l),
(307,0,l)
);
},
{
closed = 1;
nodes = (
(508,212,l),
(520,282,l),
(72,282,l),
(60,212,l)
);
},
{
closed = 1;
nodes = (
(182,0,l),
(314,740,l),
(242,740,l),
(110,0,l)
);
},
{
closed = 1;
nodes = (
(548,455,l),
(560,525,l),
(112,525,l),
(100,455,l)
);
}
);
width = 620;
}
);
unicode = 35;
}
{
color = 1;
glyphname = dollar;
layers = (
{
layerId = "574EE4B9-5C1A-4E7E-9985-C08FACB65BD8";
shapes = (
{
closed = 1;
nodes = (
(353,-100,l),
(353,820,l),
(279,820,l),
(279,-100,l)
);
},
{
closed = 1;
nodes = (
(464,0,o),
(550,84,o),
(550,196,cs),
(550,300,o),
(500,366,o),
(328,410,cs),
(194,444,o),
(170,470,o),
(170,538,cs),
(170,608,o),
(214,658,o),
(312,658,cs),
(412,658,o),
(450,618,o),
(456,546,c),
(546,546,l),
(540,662,o),
(464,740,o),
(312,740,cs),
(166,740,o),
(84,654,o),
(84,538,cs),
(84,434,o),
(130,376,o),
(280,337,cs),
(440,296,o),
(464,264,o),
(464,194,cs),
(464,122,o),
(414,82,o),
(312,82,cs),
(214,82,o),
(172,112,o),
(160,192,c),
(70,192,l),
(82,66,o),
(168,0,o),
(310,0,cs)
);
}
);
width = 620;
}
);
unicode = 36;
}
{
color = 1;
glyphname = percent;
layers = (
{
layerId = "574EE4B9-5C1A-4E7E-9985-C08FACB65BD8";
shapes = (
{
closed = 1;
nodes = (
(242,388,o),
(304,440,o),
(304,570,cs),
(304,700,o),
(242,752,o),
(162,752,cs),
(82,752,o),
(20,700,o),
(20,570,cs),
(20,440,o),
(82,388,o),
(162,388,cs)
);
},
{
closed = 1;
nodes = (
(118,450,o),
(92,482,o),
(92,570,cs),
(92,658,o),
(118,690,o),
(162,690,cs),
(206,690,o),
(232,658,o),
(232,570,cs),
(232,482,o),
(206,450,o),
(162,450,cs)
);
},
{
closed = 1;
nodes = (
(96,0,l),
(600,740,l),
(524,740,l),
(20,0,l)
);
},
{
closed = 1;
nodes = (
(538,-12,o),
(600,40,o),
(600,170,cs),
(600,300,o),
(538,352,o),
(458,352,cs),
(378,352,o),
(316,300,o),
(316,170,cs),
(316,40,o),
(378,-12,o),
(458,-12,cs)
);
},
{
closed = 1;
nodes = (
(414,50,o),
(388,82,o),
(388,170,cs),
(388,258,o),
(414,290,o),
(458,290,cs),
(502,290,o),
(528,258,o),
(528,170,cs),
(528,82,o),
(502,50,o),
(458,50,cs)
);
}
);
width = 620;
}
);
unicode = 37;
}
{
color = 1;
glyphname = ampersand;
layers = (
{
layerId = "574EE4B9-5C1A-4E7E-9985-C08FACB65BD8";
name = Regular;
shapes = (
{
closed = 1;
nodes = (
(344,-12,o),
(412,14,o),
(450,52,c),
(490,0,l),
(590,0,l),
(502,108,l),
(546,156,o),
(582,230,o),
(582,346,c),
(502,346,l),
(502,248,o),
(480,198,o),
(452,168,c),
(286,374,l),
(394,448,o),
(434,498,o),
(434,586,cs),
(434,690,o),
(372,752,o),
(266,752,cs),
(162,752,o),
(94,686,o),
(94,582,cs),
(94,500,o),
(124,452,o),
(170,394,c),
(64,321,o),
(30,258,o),
(30,170,cs),
(30,48,o),
(112,-12,o),
(256,-12,cs)
);
},
{
closed = 1;
nodes = (
(160,68,o),
(118,111,o),
(118,180,cs),
(118,242,o),
(146,282,o),
(220,332,c),
(398,110,l),
(373,86,o),
(322,68,o),
(260,68,cs)
);
},
{
closed = 1;
nodes = (
(196,486,o),
(178,519,o),
(178,578,cs),
(178,634,o),
(210,670,o),
(266,670,cs),
(320,670,o),
(350,640,o),
(350,584,cs),
(350,521,o),
(324,484,o),
(242,428,c)
);
}
);
width = 620;
}
);
unicode = 38;
}
{
color = 5;
glyphname = quotesingle;
layers = (
{
layerId = "574EE4B9-5C1A-4E7E-9985-C08FACB65BD8";
shapes = (
{
closed = 1;
nodes = (
(356,408,l),
(356,778,l),
(264,778,l),
(264,408,l)
);
}
);
width = 620;
}
);
unicode = 39;
}
{
color = 9;
glyphname = parenleft;
layers = (
{
layerId = "574EE4B9-5C1A-4E7E-9985-C08FACB65BD8";
shapes = (
{
closed = 1;
nodes = (
(460,-96,l),
(310,48,o),
(246,191,o),
(246,370,cs),
(246,549,o),
(310,693,o),
(460,836,c),
(376,836,l),
(220,698,o),
(160,552,o),
(160,370,cs),
(160,188,o),
(220,42,o),
(376,-96,c)
);
}
);
width = 620;
}
);
unicode = 40;
}
{
color = 9;
glyphname = asterisk;
layers = (
{
layerId = "574EE4B9-5C1A-4E7E-9985-C08FACB65BD8";
shapes = (
{
closed = 1;
nodes = (
(348,134,l),
(342,316,l),
(504,206,l),
(544,272,l),
(364,374,l),
(544,476,l),
(504,542,l),
(342,432,l),
(348,614,l),
(272,614,l),
(278,432,l),
(116,542,l),
(76,476,l),
(256,374,l),
(76,272,l),
(116,206,l),
(278,316,l),
(272,134,l)
);
}
);
width = 620;
}
);
unicode = 42;
}
{
color = 1;
glyphname = plus;
layers = (
{
layerId = "574EE4B9-5C1A-4E7E-9985-C08FACB65BD8";
shapes = (
{
closed = 1;
nodes = (
(550,263,l),
(550,341,l),
(70,341,l),
(70,263,l)
);
},
{
closed = 1;
nodes = (
(349,62,l),
(349,542,l),
(271,542,l),
(271,62,l)
);
}
);
width = 620;
}
);
unicode = 43;
}
{
color = 9;
glyphname = comma;
layers = (
{
layerId = "574EE4B9-5C1A-4E7E-9985-C08FACB65BD8";
shapes = (
{
closed = 1;
nodes = (
(310,-148,l),
(388,128,l),
(276,128,l),
(232,-148,l)
);
}
);
width = 620;
}
);
unicode = 44;
}
{
color = 9;
glyphname = hyphen;
layers = (
{
layerId = "574EE4B9-5C1A-4E7E-9985-C08FACB65BD8";
shapes = (
{
closed = 1;
nodes = (
(520,254,l),
(520,332,l),
(100,332,l),
(100,254,l)
);
}
);
width = 620;
}
);
unicode = 45;
}
{
color = 9;
glyphname = period;
layers = (
{
layerId = "574EE4B9-5C1A-4E7E-9985-C08FACB65BD8";
shapes = (
{
closed = 1;
nodes = (
(362,-12,o),
(394,23,o),
(394,70,cs),
(394,118,o),
(362,152,o),
(310,152,cs),
(258,152,o),
(226,118,o),
(226,70,cs),
(226,23,o),
(258,-12,o),
(310,-12,cs)
);
}
);
width = 620;
}
);
unicode = 46;
}
{
color = 1;
glyphname = slash;
layers = (
{
layerId = "574EE4B9-5C1A-4E7E-9985-C08FACB65BD8";
shapes = (
{
closed = 1;
nodes = (
(190,-82,l),
(510,778,l),
(430,778,l),
(110,-82,l)
);
}
);
width = 620;
}
);
unicode = 47;
}
{
color = 1;
glyphname = zero;
layers = (
{
layerId = "574EE4B9-5C1A-4E7E-9985-C08FACB65BD8";
shapes = (
{
closed = 1;
nodes = (
(470,-12,o),
(560,120,o),
(560,370,cs),
(560,620,o),
(470,752,o),
(310,752,cs),
(150,752,o),
(60,620,o),
(60,370,cs),
(60,120,o),
(150,-12,o),
(310,-12,cs)
);
},
{
closed = 1;
nodes = (
(210,72,o),
(150,160,o),
(150,370,cs),
(150,580,o),
(210,668,o),
(310,668,cs),
(410,668,o),
(470,580,o),
(470,370,cs),
(470,160,o),
(410,72,o),
(310,72,cs)
);
}
);
width = 620;
}
);
unicode = 48;
}
{
color = 1;
glyphname = one;
layers = (
{
layerId = "574EE4B9-5C1A-4E7E-9985-C08FACB65BD8";
shapes = (
{
closed = 1;
nodes = (
(360,0,l),
(360,740,l),
(286,740,l),
(78,590,l),
(78,502,l),
(274,640,l),
(274,0,l)
);
},
{
closed = 1;
nodes = (
(540,0,l),
(540,80,l),
(60,80,l),
(60,0,l)
);
}
);
width = 620;
}
);
unicode = 49;
}
{
color = 1;
glyphname = two;
layers = (
{
layerId = "574EE4B9-5C1A-4E7E-9985-C08FACB65BD8";
shapes = (
{
closed = 1;
nodes = (
(540,0,l),
(540,80,l),
(186,80,l),
(358,244,ls),
(474,355,o),
(528,408,o),
(528,530,cs),
(528,664,o),
(452,752,o),
(298,752,cs),
(148,752,o),
(62,662,o),
(60,508,c),
(150,508,l),
(152,614,o),
(194,670,o),
(298,670,cs),
(392,670,o),
(438,617,o),
(438,528,cs),
(438,435,o),
(399,391,o),
(300,296,cs),
(70,74,l),
(70,0,l)
);
}
);
width = 620;
}
);
unicode = 50;
}
{
color = 1;
glyphname = three;
layers = (
{
layerId = "574EE4B9-5C1A-4E7E-9985-C08FACB65BD8";
shapes = (
{
closed = 1;
nodes = (
(446,-12,o),
(550,66,o),
(550,212,cs),
(550,316,o),
(477,388,o),
(361,402,c),
(361,384,l),
(471,402,o),
(525,460,o),
(525,552,cs),
(525,678,o),
(442,752,o),
(300,752,cs),
(158,752,o),
(79,679,o),
(66,557,c),
(156,557,l),
(165,630,o),
(206,668,o),
(300,668,cs),
(390,668,o),
(435,628,o),
(435,548,cs),
(435,463,o),
(373,433,o),
(299,433,cs),
(243,433,l),
(243,349,l),
(299,349,ls),
(391,349,o),
(460,306,o),
(460,212,cs),
(460,106,o),
(384,72,o),
(294,72,cs),
(208,72,o),
(155,103,o),
(149,203,c),
(60,203,l),
(66,67,o),
(144,-12,o),
(294,-12,cs)
);
}
);
width = 620;
}
);
unicode = 51;
}
{
color = 1;
glyphname = four;
layers = (
{
layerId = "574EE4B9-5C1A-4E7E-9985-C08FACB65BD8";
shapes = (
{
closed = 1;
nodes = (
(470,0,l),
(470,174,l),
(560,174,l),
(560,254,l),
(470,254,l),
(470,456,l),
(384,456,l),
(384,254,l),
(128,254,l),
(414,740,l),
(320,740,l),
(40,250,l),
(40,174,l),
(384,174,l),
(384,0,l)
);
}
);
width = 620;
}
);
unicode = 52;
}
{
color = 1;
glyphname = five;
layers = (
{
layerId = "574EE4B9-5C1A-4E7E-9985-C08FACB65BD8";
shapes = (
{
closed = 1;
nodes = (
(440,-12,o),
(540,88,o),
(540,242,cs),
(540,396,o),
(440,492,o),
(310,492,cs),
(230,492,o),
(170,452,o),
(140,388,c),
(162,382,l),
(188,660,l),
(497,660,l),
(497,740,l),
(109,740,l),
(72,334,l),
(164,334,l),
(184,376,o),
(228,412,o),
(296,412,cs),
(390,412,o),
(450,352,o),
(450,242,cs),
(450,128,o),
(390,70,o),
(298,70,cs),
(206,70,o),
(158,105,o),
(150,195,c),
(60,195,l),
(68,65,o),
(156,-12,o),
(298,-12,cs)
);
}
);
width = 620;
}
);
unicode = 53;
}
{
color = 1;
glyphname = six;
layers = (
{
layerId = "574EE4B9-5C1A-4E7E-9985-C08FACB65BD8";
shapes = (
{
closed = 1;
nodes = (
(466,-12,o),
(562,92,o),
(562,228,cs),
(562,364,o),
(466,468,o),
(330,468,cs),
(232,468,o),
(176,390,o),
(168,372,c),
(172,372,l),
(172,383,o),
(180,397,o),
(198,424,cs),
(416,740,l),
(312,740,l),
(156,502,ls),
(100,416,o),
(70,338,o),
(70,252,cs),
(70,92,o),
(170,-12,o),
(318,-12,cs)
);
},
{
closed = 1;
nodes = (
(228,70,o),
(162,128,o),
(162,228,cs),
(162,328,o),
(228,386,o),
(318,386,cs),
(408,386,o),
(474,328,o),
(474,228,cs),
(474,128,o),
(408,70,o),
(318,70,cs)
);
}
);
width = 620;
}
);
unicode = 54;
}
{
color = 1;
glyphname = seven;
layers = (
{
layerId = "574EE4B9-5C1A-4E7E-9985-C08FACB65BD8";
shapes = (
{
closed = 1;
nodes = (
(274,0,l),
(530,670,l),
(530,740,l),
(70,740,l),
(70,656,l),
(438,656,l),
(182,0,l)
);
}
);
width = 620;
}
);
unicode = 55;
}
{
color = 1;
glyphname = eight;
layers = (
{
layerId = "574EE4B9-5C1A-4E7E-9985-C08FACB65BD8";
shapes = (
{
closed = 1;
nodes = (
(451,-12,o),
(560,61,o),
(560,199,cs),
(560,311,o),
(494,382,o),
(392,404,c),
(390,386,l),
(474,406,o),
(526,460,o),
(526,553,cs),
(526,667,o),
(446,752,o),
(310,752,cs),
(174,752,o),
(94,667,o),
(94,553,cs),
(94,460,o),
(146,406,o),
(230,386,c),
(228,404,l),
(126,382,o),
(60,311,o),
(60,199,cs),
(60,61,o),
(169,-12,o),
(310,-12,cs)
);
},
{
closed = 1;
nodes = (
(217,70,o),
(150,112,o),
(150,204,cs),
(150,296,o),
(204,352,o),
(310,352,cs),
(416,352,o),
(470,296,o),
(470,204,cs),
(470,112,o),
(403,70,o),
(310,70,cs)
);
},
{
closed = 1;
nodes = (
(234,432,o),
(184,470,o),
(184,552,cs),
(184,626,o),
(222,670,o),
(310,670,cs),
(398,670,o),
(436,626,o),
(436,552,cs),
(436,470,o),
(386,432,o),
(310,432,cs)
);
}
);
width = 620;
}
);
unicode = 56;
}
{
color = 1;
glyphname = colon;
layers = (
{
layerId = "574EE4B9-5C1A-4E7E-9985-C08FACB65BD8";
shapes = (
{
closed = 1;
nodes = (
(362,-12,o),
(393,21,o),
(393,68,cs),
(393,116,o),
(362,149,o),
(310,149,cs),
(258,149,o),
(227,116,o),
(227,68,cs),
(227,21,o),
(258,-12,o),
(310,-12,cs)
);
},
{
closed = 1;
nodes = (
(362,381,o),
(393,414,o),
(393,461,cs),
(393,509,o),
(362,542,o),
(310,542,cs),
(258,542,o),
(227,509,o),
(227,461,cs),
(227,414,o),
(258,381,o),
(310,381,cs)
);
}
);
width = 620;
}
);
unicode = 58;
}
{
color = 1;
glyphname = semicolon;
layers = (
{
layerId = "574EE4B9-5C1A-4E7E-9985-C08FACB65BD8";
shapes = (
{
closed = 1;
nodes = (
(363,381,o),
(394,414,o),
(394,461,cs),
(394,509,o),
(363,542,o),
(311,542,cs),
(259,542,o),
(228,509,o),
(228,461,cs),
(228,414,o),
(259,381,o),
(311,381,cs)
);
},
{
closed = 1;
nodes = (
(314,-148,l),
(380,128,l),
(256,128,l),
(226,-148,l)
);
}
);
width = 620;
}
);
unicode = 59;
}
{
color = 1;
glyphname = equal;
layers = (
{
layerId = "574EE4B9-5C1A-4E7E-9985-C08FACB65BD8";
shapes = (
{
closed = 1;
nodes = (
(530,364,l),
(530,442,l),
(90,442,l),
(90,364,l)
);
},
{
closed = 1;
nodes = (
(530,157,l),
(530,235,l),
(90,235,l),
(90,157,l)
);
}
);
width = 620;
}
);
unicode = 61;
}
{
color = 1;
glyphname = greater;
layers = (
{
layerId = "574EE4B9-5C1A-4E7E-9985-C08FACB65BD8";
shapes = (
{
closed = 1;
nodes = (
(540,248,l),
(540,350,l),
(80,556,l),
(80,474,l),
(484,294,l),
(484,304,l),
(80,124,l),
(80,42,l)
);
}
);
width = 620;
}
);
unicode = 62;
}
{
color = 9;
glyphname = question;
layers = (
{
layerId = "574EE4B9-5C1A-4E7E-9985-C08FACB65BD8";
name = Regular;
shapes = (
{
closed = 1;
nodes = (
(348,238,l),
(348,297,o),
(362,329,o),
(416,364,cs),
(502,420,o),
(540,466,o),
(540,550,cs),
(540,664,o),
(454,752,o),
(314,752,cs),
(174,752,o),
(86,656,o),
(80,520,c),
(170,520,l),
(174,616,o),
(218,668,o),
(314,668,cs),
(410,668,o),
(450,619,o),
(450,550,cs),
(450,490,o),
(438,464,o),
(360,416,cs),
(291,373,o),
(262,323,o),
(262,238,c)
);
},
{
closed = 1;
nodes = (
(350,-12,o),
(378,18,o),
(378,60,cs),
(378,102,o),
(350,132,o),
(306,132,cs),
(262,132,o),
(234,102,o),
(234,60,cs),
(234,18,o),
(262,-12,o),
(306,-12,cs)
);
}
);
width = 620;
}
);
unicode = 63;
}
{
color = 1;
glyphname = at;
layers = (
{
layerId = "574EE4B9-5C1A-4E7E-9985-C08FACB65BD8";
shapes = (
{
closed = 1;
nodes = (
(374,106,o),
(414,216,o),
(414,328,cs),
(414,440,o),
(378,550,o),
(290,550,cs),
(207,550,o),
(170,473,o),
(170,328,cs),
(170,182,o),
(207,106,o),
(290,106,cs)
);
},
{
closed = 1;
nodes = (
(268,170,o),
(248,213,o),
(248,328,cs),
(248,442,o),
(268,486,o),
(310,486,cs),
(352,486,o),
(372,442,o),
(372,328,cs),
(372,213,o),
(352,170,o),
(310,170,cs)
);
},
{
closed = 1;
nodes = (
(428,4,l),
(396,-8,o),
(344,-12,o),
(296,-12,cs),
(181,-12,o),
(90,42,o),
(90,338,cs),
(90,608,o),
(184,682,o),
(318,682,cs),
(466,682,o),
(530,608,o),
(530,358,cs),
(530,202,o),
(502,174,o),
(476,174,cs),
(451,174,o),
(440,191,o),
(440,232,cs),
(440,542,l),
(372,542,l),
(372,234,ls),
(372,150,o),
(406,106,o),
(470,106,cs),
(544,106,o),
(600,170,o),
(600,358,cs),
(600,644,o),
(508,752,o),
(318,752,cs),
(138,752,o),
(20,644,o),
(20,338,cs),
(20,2,o),
(146,-80,o),
(296,-80,cs),
(346,-80,o),
(404,-72,o),
(428,-62,c)
);
}
);
width = 620;
}
);
unicode = 64;
}
{
color = 1;
glyphname = A;
layers = (
{
anchors = (
{
name = bottom;
pos = (310,0);
},
{
name = ogonek;
pos = (590,0);
},
{
name = top;
pos = (310,740);
}
);
layerId = "574EE4B9-5C1A-4E7E-9985-C08FACB65BD8";
shapes = (
{
closed = 1;
nodes = (
(122,0,l),
(314,684,l),
(306,684,l),
(498,0,l),
(590,0,l),
(378,740,l),
(242,740,l),
(30,0,l)
);
},
{
closed = 1;
nodes = (
(475,212,l),
(445,292,l),
(175,292,l),
(145,212,l)
);
}
);
width = 620;
}
);
unicode = 65;
}
{
color = 1;
glyphname = B;
layers = (
{
anchors = (
{
name = bottom;
pos = (287,0);
},
{
name = top;
pos = (287,740);
}
);
layerId = "574EE4B9-5C1A-4E7E-9985-C08FACB65BD8";
shapes = (
{
closed = 1;
nodes = (
(304,0,ls),
(454,0,o),
(546,75,o),
(546,206,cs),
(546,320,o),
(472,386,o),
(348,386,c),
(348,380,l),
(448,380,o),
(516,445,o),
(516,542,cs),
(516,666,o),
(436,740,o),
(280,740,cs),
(80,740,l),
(80,0,l)
);
},
{
closed = 1;
nodes = (
(166,339,l),
(306,339,ls),
(404,339,o),
(456,294,o),
(456,206,cs),
(456,122,o),
(408,80,o),
(306,80,cs),
(166,80,l)
);
},
{
closed = 1;
nodes = (
(166,660,l),
(284,660,ls),
(382,660,o),
(426,620,o),
(426,540,cs),
(426,459,o),
(382,419,o),
(284,419,cs),
(166,419,l)
);
}
);
width = 620;
}
);
unicode = 66;
}
{
color = 1;
glyphname = C;
layers = (
{
anchors = (
{
name = bottom;
pos = (320,0);
},
{
name = top;
pos = (320,740);
}
);
layerId = "574EE4B9-5C1A-4E7E-9985-C08FACB65BD8";
shapes = (
{
closed = 1;
nodes = (
(470,-12,o),
(552,82,o),
(570,222,c),
(478,222,l),
(466,126,o),
(420,72,o),
(320,72,cs),
(206,72,o),
(140,175,o),
(140,368,cs),
(140,562,o),
(206,668,o),
(320,668,cs),
(420,668,o),
(466,614,o),
(478,518,c),
(570,518,l),
(552,658,o),
(470,752,o),
(320,752,cs),
(146,752,o),
(50,607,o),
(50,368,cs),
(50,131,o),
(146,-12,o),
(320,-12,cs)
);
}
);
width = 620;
}
);
unicode = 67;
}
{
color = 1;
glyphname = D;
layers = (
{
anchors = (
{
name = bottom;
pos = (294,0);
},
{
name = center;
pos = (190,374);
},
{
name = top;
pos = (294,740);
}
);
layerId = "574EE4B9-5C1A-4E7E-9985-C08FACB65BD8";
shapes = (
{
closed = 1;
nodes = (
(268,0,ls),
(452,0,o),
(556,126,o),
(556,369,cs),
(556,612,o),
(452,740,o),
(268,740,cs),
(84,740,l),
(84,0,l)
);
},
{
closed = 1;
nodes = (
(170,660,l),
(264,660,ls),
(402,660,o),
(466,569,o),
(466,369,cs),
(466,169,o),
(402,80,o),
(264,80,cs),
(170,80,l)
);
}
);
width = 620;
}
);
unicode = 68;
}
{
color = 1;
glyphname = E;
layers = (
{
anchors = (
{
name = bottom;
pos = (310,0);
},
{
name = ogonek;
pos = (530,0);
},
{
name = top;
pos = (310,740);
}
);
layerId = "574EE4B9-5C1A-4E7E-9985-C08FACB65BD8";
shapes = (
{
closed = 1;
nodes = (
(530,0,l),
(530,80,l),
(176,80,l),
(176,338,l),
(510,338,l),
(510,418,l),
(176,418,l),
(176,660,l),
(522,660,l),
(522,740,l),
(90,740,l),
(90,0,l)
);
}
);
width = 620;
}
);
unicode = 69;
}
{
color = 1;
glyphname = F;
layers = (
{
anchors = (
{
name = bottom;
pos = (320,0);
},
{
name = top;
pos = (320,740);
}
);
layerId = "574EE4B9-5C1A-4E7E-9985-C08FACB65BD8";
shapes = (
{
closed = 1;
nodes = (
(186,0,l),
(186,338,l),
(522,338,l),
(522,418,l),
(186,418,l),
(186,699,l),
(146,660,l),
(540,660,l),
(540,740,l),
(100,740,l),
(100,0,l)
);
}
);
width = 620;
}
);
unicode = 70;
}
{
color = 1;
glyphname = G;
layers = (
{
anchors = (
{
name = bottom;
pos = (318,0);
},
{
name = top;
pos = (318,740);
}
);
layerId = "574EE4B9-5C1A-4E7E-9985-C08FACB65BD8";
shapes = (
{
closed = 1;
nodes = (
(488,-12,o),
(570,96,o),
(570,324,cs),
(570,372,l),
(326,372,l),
(326,292,l),
(484,292,l),
(484,141,o),
(434,72,o),
(320,72,cs),
(199,72,o),
(140,182,o),
(140,368,cs),
(140,554,o),
(200,668,o),
(320,668,cs),
(429,668,o),
(466,606,o),
(478,518,c),
(570,518,l),
(549,658,o),
(474,752,o),
(320,752,cs),
(146,752,o),
(50,607,o),
(50,368,cs),
(50,124,o),
(152,-12,o),
(320,-12,cs)
);
}
);
width = 620;
}
);
note = "<svg xmlns=\"http://www.w3.org/2000/svg\" viewBox=\"0 0 606 742\"><path d=\"M606,726v-360h-284v86h199c-7,115-76,204-199,204c-161,0-230-133-230-284c0-152,68-286,230-286c102,0,166,59,189,144l92-6c-31-130-130-224-281-224c-206,0-322,166-322,372c0,205,117,370,322,370c93,0,181-54,212-131l8,115Z\"></path></svg>";
unicode = 71;
}
{
color = 1;
glyphname = H;
layers = (
{
anchors = (
{
name = bottom;
pos = (310,0);
},
{
name = center;
pos = (310,580);
},
{
name = top;
pos = (310,740);
}
);
layerId = "574EE4B9-5C1A-4E7E-9985-C08FACB65BD8";
shapes = (
{
closed = 1;
nodes = (
(156,0,l),
(156,379,l),
(112,347,l),
(508,347,l),
(464,379,l),
(464,0,l),
(550,0,l),
(550,740,l),
(464,740,l),
(464,395,l),
(508,427,l),
(112,427,l),
(156,395,l),
(156,740,l),
(70,740,l),
(70,0,l)
);
}
);
width = 620;
}
);
unicode = 72;
}
{
color = 1;
glyphname = I;
layers = (
{
anchors = (
{
name = bottom;
pos = (310,0);
},
{
name = ogonek;
pos = (530,0);
},
{
name = top;
pos = (310,740);
}
);
layerId = "574EE4B9-5C1A-4E7E-9985-C08FACB65BD8";
shapes = (
{
closed = 1;
nodes = (
(530,0,l),
(530,80,l),
(353,80,l),
(353,660,l),
(530,660,l),
(530,740,l),
(90,740,l),
(90,660,l),
(267,660,l),
(267,80,l),
(90,80,l),
(90,0,l)
);
}
);
width = 620;
}
);
unicode = 73;
}
{
color = 1;
glyphname = J;
layers = (
{
anchors = (
{
name = bottom;
pos = (300,0);
},
{
name = top;
pos = (369,740);
}
);
layerId = "574EE4B9-5C1A-4E7E-9985-C08FACB65BD8";
shapes = (
{
closed = 1;
nodes = (
(448,-12,o),
(530,83,o),
(530,240,cs),
(530,740,l),
(444,730,l),
(444,242,ls),
(444,126,o),
(402,70,o),
(300,70,cs),
(198,70,o),
(154,112,o),
(154,222,c),
(70,222,l),
(70,76,o),
(148,-12,o),
(300,-12,cs)
);
},
{
closed = 1;
nodes = (
(494,660,l),
(530,740,l),
(209,740,l),
(209,660,l)
);
}
);
width = 620;
}
);
unicode = 74;
}
{
color = 1;
glyphname = K;
layers = (
{
anchors = (
{
name = bottom;
pos = (294,0);
},
{
name = top;
pos = (287,740);
}
);
layerId = "574EE4B9-5C1A-4E7E-9985-C08FACB65BD8";
shapes = (
{
closed = 1;
nodes = (
(560,740,l),
(454,740,l),
(146,372,l),
(146,256,l)
);
},
{
closed = 1;
nodes = (
(156,0,l),
(156,740,l),
(70,740,l),
(70,0,l)
);
},
{
closed = 1;
nodes = (
(570,0,l),
(276,442,l),
(216,380,l),
(464,0,l)
);
}
);
width = 620;
}
);
unicode = 75;
}
{
color = 1;
glyphname = L;
layers = (
{
anchors = (
{
name = bottom;
pos = (331,0);
},
{
name = center;
pos = (200,390);
},
{
name = top;
pos = (153,740);
},
{
name = topright;
pos = (360,492);
}
);
guides = (
{
angle = 90;
pos = (550,80);
}
);
layerId = "574EE4B9-5C1A-4E7E-9985-C08FACB65BD8";
shapes = (
{
closed = 1;
nodes = (
(550,0,l),
(550,80,l),
(153,80,l),
(196,40,l),
(196,740,l),
(110,740,l),
(110,0,l)
);
}
);
width = 620;
}
);
unicode = 76;
}
{
color = 5;
glyphname = M;
layers = (
{
anchors = (
{
name = bottom;
pos = (310,0);
},
{
name = top;
pos = (310,740);
}
);
background = {
shapes = (
{
closed = 1;
nodes = (
(348,80,l),
(506,690,l),
(490,690,l),
(490,0,l),
(570,0,l),
(570,740,l),
(454,740,l),
(296,126,l),
(324,126,l),
(166,740,l),
(50,740,l),
(50,0,l),
(130,0,l),
(130,690,l),
(114,690,l),
(272,80,l)
);
}
);
};
layerId = "574EE4B9-5C1A-4E7E-9985-C08FACB65BD8";
shapes = (
{
closed = 1;
nodes = (
(348,180,l),
(506,690,l),
(490,690,l),
(490,0,l),
(570,0,l),
(570,740,l),
(458,740,l),
(298,226,l),
(322,226,l),
(162,740,l),
(50,740,l),
(50,0,l),
(130,0,l),
(130,690,l),
(114,690,l),
(272,180,l)
);
}
);
width = 620;
}
);
unicode = 77;
}
{
color = 1;
glyphname = N;
layers = (
{
anchors = (
{
name = bottom;
pos = (310,0);
},
{
name = top;
pos = (310,740);
}
);
layerId = "574EE4B9-5C1A-4E7E-9985-C08FACB65BD8";
shapes = (
{
closed = 1;
nodes = (
(166,0,l),
(166,677,l),
(150,672,l),
(420,0,l),
(540,0,l),
(540,740,l),
(454,740,l),
(454,64,l),
(470,68,l),
(200,740,l),
(80,740,l),
(80,0,l)
);
}
);
width = 620;
}
);
unicode = 78;
}
{
color = 1;
glyphname = O;
layers = (
{
anchors = (
{
name = bottom;
pos = (310,4);
},
{
name = center;
pos = (310,369);
},
{
name = ogonek;
pos = (410,4);
},
{
name = top;
pos = (310,740);
}
);
layerId = "574EE4B9-5C1A-4E7E-9985-C08FACB65BD8";
shapes = (
{
closed = 1;
nodes = (
(478,-12,o),
(570,111,o),
(570,368,cs),
(570,627,o),
(478,752,o),
(310,752,cs),
(142,752,o),
(50,627,o),
(50,368,cs),
(50,111,o),
(142,-12,o),
(310,-12,cs)
);
},
{
closed = 1;
nodes = (
(200,72,o),
(140,162,o),
(140,368,cs),
(140,574,o),
(200,668,o),
(310,668,cs),
(420,668,o),
(480,574,o),
(480,368,cs),
(480,162,o),
(420,72,o),
(310,72,cs)
);
}
);
width = 620;
}
);
unicode = 79;
}
{
color = 1;
glyphname = P;
layers = (
{
anchors = (
{
name = bottom;
pos = (310,0);
},
{
name = top;
pos = (310,740);
}
);
layerId = "574EE4B9-5C1A-4E7E-9985-C08FACB65BD8";
shapes = (
{
closed = 1;
nodes = (
(176,0,l),
(176,306,l),
(306,306,ls),
(454,306,o),
(550,387,o),
(550,523,cs),
(550,659,o),
(454,740,o),
(306,740,cs),
(90,740,l),
(90,0,l)
);
},
{
closed = 1;
nodes = (
(176,660,l),
(296,660,ls),
(408,660,o),
(460,613,o),
(460,523,cs),
(460,433,o),
(408,386,o),
(296,386,cs),
(176,386,l)
);
}
);
width = 620;
}
);
unicode = 80;
}
{
color = 1;
glyphname = Q;
layers = (
{
anchors = (
{
name = bottom;
pos = (310,0);
},
{
name = top;
pos = (310,740);
}
);
layerId = "574EE4B9-5C1A-4E7E-9985-C08FACB65BD8";
shapes = (
{
closed = 1;
nodes = (
(510,-140,l),
(350,248,l),
(270,248,l),
(430,-140,l)
);
},
{
ref = O;
}
);
width = 620;
}
);
unicode = 81;
}
{
color = 1;
glyphname = R;
layers = (
{
anchors = (
{
name = bottom;
pos = (290,0);
},
{
name = top;
pos = (290,740);
}
);
layerId = "574EE4B9-5C1A-4E7E-9985-C08FACB65BD8";
shapes = (
{
closed = 1;
nodes = (
(156,0,l),
(156,316,l),
(303,316,l),
(461,0,l),
(556,0,l),
(384,332,l),
(482,358,o),
(536,426,o),
(536,525,cs),
(536,660,o),
(445,740,o),
(296,740,cs),
(70,740,l),
(70,0,l)
);
},
{
closed = 1;
nodes = (
(156,660,l),
(296,660,ls),
(400,660,o),
(446,613,o),
(446,527,cs),
(446,441,o),
(402,396,o),
(296,396,cs),
(156,396,l)
);
}
);
width = 620;
}
);
unicode = 82;
}
{
color = 1;
glyphname = S;
layers = (
{
anchors = (
{
name = bottom;
pos = (306,0);
},
{
name = top;
pos = (314,740);
}
);
layerId = "574EE4B9-5C1A-4E7E-9985-C08FACB65BD8";
shapes = (
{
closed = 1;
nodes = (
(464,-12,o),
(550,74,o),
(550,192,cs),
(550,300,o),
(500,366,o),
(328,410,cs),
(194,444,o),
(170,470,o),
(170,542,cs),
(170,620,o),
(214,670,o),
(312,670,cs),
(412,670,o),
(450,630,o),
(456,558,c),
(546,558,l),
(540,674,o),
(464,752,o),
(312,752,cs),
(166,752,o),
(84,666,o),
(84,542,cs),
(84,434,o),
(130,376,o),
(278,338,cs),
(440,296,o),
(464,264,o),
(464,190,cs),
(464,112,o),
(414,70,o),
(312,70,cs),
(214,70,o),
(172,102,o),
(160,184,c),
(70,184,l),
(82,56,o),
(168,-12,o),
(310,-12,cs)
);
}
);
width = 620;
}
);
unicode = 83;
}
{
color = 1;
glyphname = T;
layers = (
{
anchors = (
{
name = bottom;
pos = (310,0);
},
{
name = center;
pos = (310,374);
},
{
name = top;
pos = (310,740);
}
);
layerId = "574EE4B9-5C1A-4E7E-9985-C08FACB65BD8";
shapes = (
{
closed = 1;
nodes = (
(353,0,l),
(353,660,l),
(570,660,l),
(570,740,l),
(50,740,l),
(50,660,l),
(267,660,l),
(267,0,l)
);
}
);
width = 620;
}
);
unicode = 84;
}
{
color = 1;
glyphname = U;
layers = (
{
anchors = (
{
name = bottom;
pos = (310,0);
},
{
name = ogonek;
pos = (407,1);
},
{
name = top;
pos = (310,740);
}
);
layerId = "574EE4B9-5C1A-4E7E-9985-C08FACB65BD8";
shapes = (
{
closed = 1;
nodes = (
(459,-16,o),
(550,85,o),
(550,248,cs),
(550,740,l),
(464,740,l),
(464,248,ls),
(464,131,o),
(410,68,o),
(310,68,cs),
(210,68,o),
(156,131,o),
(156,248,cs),
(156,740,l),
(70,740,l),
(70,248,ls),
(70,85,o),
(161,-16,o),
(310,-16,cs)
);
}
);
width = 620;
}
);
unicode = 85;
}
{
color = 1;
glyphname = V;
layers = (
{
anchors = (
{
name = bottom;
pos = (310,0);
},
{
name = top;
pos = (310,740);
}
);
layerId = "574EE4B9-5C1A-4E7E-9985-C08FACB65BD8";
shapes = (
{
closed = 1;
nodes = (
(366,0,l),
(580,740,l),
(488,740,l),
(298,56,l),
(322,56,l),
(132,740,l),
(40,740,l),
(254,0,l)
);
}
);
width = 620;
}
);
unicode = 86;
}
{
color = 5;
glyphname = W;
layers = (
{
anchors = (
{
name = bottom;
pos = (310,0);
},
{
name = top;
pos = (310,740);
}
);
background = {
shapes = (
{
closed = 1;
nodes = (
(226,0,l),
(316,610,l),
(304,610,l),
(394,0,l),
(506,0,l),
(610,740,l),
(526,740,l),
(444,46,l),
(452,46,l),
(362,660,l),
(258,660,l),
(168,46,l),
(176,46,l),
(94,740,l),
(10,740,l),
(114,0,l)
);
}
);
};
layerId = "574EE4B9-5C1A-4E7E-9985-C08FACB65BD8";
shapes = (
{
closed = 1;
nodes = (
(216,0,l),
(316,510,l),
(304,510,l),
(404,0,l),
(516,0,l),
(610,740,l),
(526,740,l),
(452,46,l),
(458,46,l),
(360,560,l),
(260,560,l),
(162,46,l),
(168,46,l),
(94,740,l),
(10,740,l),
(104,0,l)
);
}
);
width = 620;
}
);
unicode = 87;
}
{
color = 1;
glyphname = X;
layers = (
{
anchors = (
{
name = bottom;
pos = (310,0);
},
{
name = top;
pos = (310,740);
}
);
layerId = "574EE4B9-5C1A-4E7E-9985-C08FACB65BD8";
shapes = (
{
closed = 1;
nodes = (
(146,0,l),
(310,310,l),
(472,0,l),
(570,0,l),
(364,376,l),
(566,740,l),
(470,740,l),
(308,444,l),
(152,740,l),
(54,740,l),
(256,377,l),
(50,0,l)
);
}
);
width = 620;
}
);
unicode = 88;
}
{
color = 1;
glyphname = Y;
layers = (
{
anchors = (
{
name = bottom;
pos = (310,0);
},
{
name = top;
pos = (310,740);
}
);
layerId = "574EE4B9-5C1A-4E7E-9985-C08FACB65BD8";
shapes = (
{
closed = 1;
nodes = (
(354,0,l),
(354,320,l),
(574,740,l),
(476,740,l),
(310,408,l),
(144,740,l),
(46,740,l),
(268,320,l),
(268,0,l)
);
}
);
width = 620;
}
);
unicode = 89;
}
{
color = 1;
glyphname = Z;
layers = (
{
anchors = (
{
name = bottom;
pos = (310,0);
},
{
name = top;
pos = (310,740);
}
);
layerId = "574EE4B9-5C1A-4E7E-9985-C08FACB65BD8";
shapes = (
{
closed = 1;
nodes = (
(550,0,l),
(550,80,l),
(164,80,l),
(542,658,l),
(542,740,l),
(78,740,l),
(78,660,l),
(448,660,l),
(70,82,l),
(70,0,l)
);
}
);
width = 620;
}
);
unicode = 90;
}
{
color = 9;
glyphname = bracketright;
layers = (
{
layerId = "574EE4B9-5C1A-4E7E-9985-C08FACB65BD8";
shapes = (
{
closed = 1;
nodes = (
(470,-96,l),
(470,836,l),
(150,836,l),
(150,762,l),
(390,762,l),
(390,-22,l),
(150,-22,l),
(150,-96,l)
);
}
);
width = 620;
}
);
unicode = 93;
}
{
color = 1;
glyphname = asciicircum;
layers = (
{
layerId = "574EE4B9-5C1A-4E7E-9985-C08FACB65BD8";
shapes = (
{
closed = 1;
nodes = (
(184,403,l),
(314,687,l),
(306,687,l),
(436,403,l),
(520,403,l),
(363,740,l),
(257,740,l),
(100,403,l)
);
}
);
width = 620;
}
);
unicode = 94;
}
{
color = 9;
glyphname = underscore;
layers = (
{
layerId = "574EE4B9-5C1A-4E7E-9985-C08FACB65BD8";
shapes = (
{
closed = 1;
nodes = (
(600,-78,l),
(600,0,l),
(20,0,l),
(20,-78,l)
);
}
);
width = 620;
}
);
unicode = 95;
}
{
color = 1;
glyphname = grave;
layers = (
{
layerId = "574EE4B9-5C1A-4E7E-9985-C08FACB65BD8";
shapes = (
{
closed = 1;
nodes = (
(410,512,l),
(336,740,l),
(210,740,l),
(308,512,l)
);
}
);
width = 620;
}
);
unicode = 96;
}
{
color = 1;
glyphname = a;
layers = (
{
anchors = (
{
name = bottom;
pos = (301,0);
},
{
name = ogonek;
pos = (520,0);
},
{
name = top;
pos = (312,530);
}
);
layerId = "574EE4B9-5C1A-4E7E-9985-C08FACB65BD8";
shapes = (
{
closed = 1;
nodes = (
(360,-12,o),
(440,39,o),
(452,108,c),
(438,108,l),
(444,0,l),
(520,0,l),
(520,350,ls),
(520,478,o),
(451,542,o),
(312,542,cs),
(163,542,o),
(102,468,o),
(96,372,c),
(186,372,l),
(192,426,o),
(217,464,o),
(312,464,cs),
(403,464,o),
(436,424,o),
(436,346,cs),
(436,312,l),
(258,296,ls),
(138,285,o),
(80,226,o),
(80,142,cs),
(80,50,o),
(147,-12,o),
(268,-12,cs)
);
},
{
closed = 1;
nodes = (
(208,62,o),
(168,88,o),
(168,142,cs),
(168,196,o),
(196,218,o),
(264,224,cs),
(436,240,l),
(436,214,ls),
(436,124,o),
(384,62,o),
(274,62,cs)
);
}
);
width = 620;
},
{
anchors = (
{
name = bottom;
pos = (291,0);
},
{
name = ogonek;
pos = (560,2);
},
{
name = top;
pos = (280,550);
}
);
associatedMasterId = "574EE4B9-5C1A-4E7E-9985-C08FACB65BD8";
background = {
anchors = (
{
name = bottom;
pos = (279,0);
},
{
name = ogonek;
pos = (550,0);
},
{
name = top;
pos = (284,530);
}
);
shapes = (
{
closed = 1;
nodes = (
(322,-12,o),
(402,39,o),
(416,108,c),
(400,108,l),
(402,30,o),
(437,-2,o),
(506,-2,cs),
(522,-2,o),
(542,-1,o),
(550,0,c),
(550,74,l),
(516,74,ls),
(494,74,o),
(484,82,o),
(484,106,cs),
(484,326,ls),
(484,460,o),
(410,542,o),
(282,542,cs),
(162,542,o),
(84,474,o),
(64,374,c),
(153,367,l),
(169,428,o),
(208,462,o),
(282,462,cs),
(358,462,o),
(400,418,o),
(400,328,c),
(222,292,ls),
(106,269,o),
(54,222,o),
(54,132,cs),
(54,46,o),
(130,-12,o),
(230,-12,cs)
);
},
{
closed = 1;
nodes = (
(178,62,o),
(142,90,o),
(142,140,cs),
(142,184,o),
(166,210,o),
(238,224,cs),
(400,256,l),
(400,210,ls),
(400,122,o),
(346,62,o),
(238,62,cs)
);
}
);
};
layerId = "17C2C300-037C-497B-81EE-8FD6AB34A754";
name = "3 Jul 25 18:04";
shapes = (
{
closed = 1;
nodes = (
(332,-12,o),
(404,39,o),
(418,108,c),
(404,108,l),
(406,28,o),
(410,30,o),
(417,0,c),
(484,0,l),
(484,366,ls),
(484,498,o),
(414,562,o),
(280,562,cs),
(128,562,o),
(66,488,o),
(60,392,c),
(150,392,l),
(156,446,o),
(182,484,o),
(280,484,cs),
(366,484,o),
(400,444,o),
(400,362,cs),
(400,328,l),
(234,302,ls),
(117,284,o),
(66,228,o),
(66,140,cs),
(66,46,o),
(123,-12,o),
(236,-12,cs)
);
},
{
closed = 1;
nodes = (
(186,62,o),
(154,84,o),
(154,140,cs),
(154,194,o),
(182,222,o),
(248,232,cs),
(400,256,l),
(400,220,ls),
(400,132,o),
(354,62,o),
(240,62,cs)
);
}
);
width = 700;
}
);
unicode = 97;
}
{
color = 1;
glyphname = b;
layers = (
{
anchors = (
{
name = bottom;
pos = (343,0);
},
{
name = center;
pos = (141,786);
},
{
name = top;
pos = (343,530);
}
);
layerId = "574EE4B9-5C1A-4E7E-9985-C08FACB65BD8";
shapes = (
{
closed = 1;
nodes = (
(499,-12,o),
(580,95,o),
(580,265,cs),
(580,435,o),
(499,542,o),
(349,542,cs),
(254,542,o),
(192,484,o),
(174,434,c),
(184,416,l),
(184,778,l),
(100,778,l),
(100,0,l),
(176,0,l),
(181,120,l),
(168,105,l),
(193,32,o),
(255,-12,o),
(349,-12,cs)
);
},
{
closed = 1;
nodes = (
(237,66,o),
(184,144,o),
(184,265,cs),
(184,388,o),
(237,464,o),
(345,464,cs),
(442,464,o),
(492,388,o),
(492,265,cs),
(492,144,o),
(442,66,o),
(343,66,cs)
);
}
);
width = 620;
}
);
metricLeft = h;
unicode = 98;
}
{
color = 1;
glyphname = c;
layers = (
{
anchors = (
{
name = bottom;
pos = (317,0);
},
{
name = top;
pos = (317,530);
}
);
layerId = "574EE4B9-5C1A-4E7E-9985-C08FACB65BD8";
shapes = (
{
closed = 1;
nodes = (
(448,-12,o),
(534,66,o),
(550,186,c),
(462,186,l),
(446,108,o),
(400,66,o),
(318,66,cs),
(220,66,o),
(158,142,o),
(158,265,cs),
(158,388,o),
(220,464,o),
(318,464,cs),
(400,464,o),
(446,422,o),
(462,344,c),
(550,344,l),
(534,464,o),
(448,542,o),
(318,542,cs),
(170,542,o),
(70,433,o),
(70,265,cs),
(70,97,o),
(170,-12,o),
(318,-12,cs)
);
}
);
width = 620;
}
);
unicode = 99;
}
{
color = 1;
glyphname = d;
layers = (
{
anchors = (
{
name = bottom;
pos = (310,0);
},
{
name = center;
pos = (430,640);
},
{
name = top;
pos = (310,530);
},
{
name = topright;
pos = (549,530);
}
);
layerId = "574EE4B9-5C1A-4E7E-9985-C08FACB65BD8";
shapes = (
{
closed = 1;
nodes = (
(360,-12,o),
(427,32,o),
(452,105,c),
(439,120,l),
(444,0,l),
(520,0,l),
(520,778,l),
(436,778,l),
(436,416,l),
(448,434,l),
(430,484,o),
(363,542,o),
(268,542,cs),
(124,542,o),
(40,435,o),
(40,265,cs),
(40,95,o),
(122,-12,o),
(266,-12,cs)
);
},
{
closed = 1;
nodes = (
(179,66,o),
(128,144,o),
(128,265,cs),
(128,388,o),
(179,464,o),
(272,464,cs),
(384,464,o),
(436,388,o),
(436,265,cs),
(436,144,o),
(384,66,o),
(274,66,cs)
);
}
);
width = 620;
}
);
unicode = 100;
}
{
color = 1;
glyphname = e;
layers = (
{
anchors = (
{
name = bottom;
pos = (314,0);
},
{
name = ogonek;
pos = (446,0);
},
{
name = top;
pos = (316,530);
}
);
layerId = "574EE4B9-5C1A-4E7E-9985-C08FACB65BD8";
shapes = (
{
closed = 1;
nodes = (
(432,-12,o),
(514,52,o),
(542,160,c),
(454,160,l),
(436,98,o),
(394,66,o),
(314,66,cs),
(218,66,o),
(160,122,o),
(160,266,cs),
(160,267,ls),
(160,398,o),
(222,464,o),
(316,464,cs),
(408,464,o),
(452,411,o),
(458,313,c),
(142,313,l),
(142,241,l),
(550,241,l),
(550,286,ls),
(550,442,o),
(464,542,o),
(316,542,cs),
(170,542,o),
(70,433,o),
(70,265,cs),
(70,93,o),
(160,-12,o),
(314,-12,cs)
);
}
);
width = 620;
}
);
unicode = 101;
}
{
color = 1;
glyphname = f;
layers = (
{
anchors = (
{
name = bottom;
pos = (272,0);
},
{
name = top;
pos = (428,778);
}
);
layerId = "574EE4B9-5C1A-4E7E-9985-C08FACB65BD8";
shapes = (
{
closed = 1;
nodes = (
(316,0,l),
(316,614,ls),
(316,684,o),
(351,718,o),
(434,718,cs),
(478,718,o),
(536,713,o),
(560,708,c),
(560,780,l),
(538,785,o),
(470,790,o),
(428,790,cs),
(291,790,o),
(232,720,o),
(232,616,cs),
(232,0,l)
);
},
{
closed = 1;
nodes = (
(550,458,l),
(550,530,l),
(80,530,l),
(80,458,l)
);
}
);
width = 620;
},
{
anchors = (
{
name = bottom;
pos = (360,0);
},
{
name = top;
pos = (360,800);
}
);
associatedMasterId = "574EE4B9-5C1A-4E7E-9985-C08FACB65BD8";
background = {
shapes = (
{
closed = 1;
nodes = (
(316,0,l),
(316,564,ls),
(316,608,o),
(338,636,o),
(380,636,cs),
(530,636,l),
(530,710,l),
(380,710,ls),
(280,710,o),
(232,658,o),
(232,564,cs),
(232,0,l)
);
},
{
closed = 1;
nodes = (
(520,456,l),
(520,530,l),
(70,530,l),
(70,456,l)
);
}
);
};
layerId = "CF69D3D0-8A55-439F-95D5-8D273522FE99";
name = "14 Jul 25 at 13:31";
shapes = (
{
closed = 1;
nodes = (
(326,0,l),
(326,650,ls),
(326,710,o),
(350,726,o),
(414,726,cs),
(468,726,o),
(530,722,o),
(570,716,c),
(570,790,l),
(532,796,o),
(462,800,o),
(408,800,cs),
(292,800,o),
(242,744,o),
(242,654,cs),
(242,0,l)
);
},
{
closed = 1;
nodes = (
(570,476,l),
(570,550,l),
(90,550,l),
(90,476,l)
);
}
);
width = 660;
}
);
unicode = 102;
}
{
color = 1;
glyphname = g;
layers = (
{
anchors = (
{
name = bottom;
pos = (305,-202);
},
{
name = top;
pos = (299,530);
}
);
layerId = "574EE4B9-5C1A-4E7E-9985-C08FACB65BD8";
shapes = (
{
closed = 1;
nodes = (
(456,-202,o),
(540,-136,o),
(540,-2,cs),
(540,530,l),
(460,530,l),
(460,446,l),
(436,505,o),
(372,542,o),
(293,542,cs),
(155,542,o),
(60,436,o),
(60,280,cs),
(60,124,o),
(157,18,o),
(299,18,cs),
(371,18,o),
(430,54,o),
(456,110,c),
(456,-2,ls),
(456,-86,o),
(406,-126,o),
(305,-126,cs),
(208,-126,o),
(174,-100,o),
(162,-48,c),
(74,-48,l),
(92,-144,o),
(164,-202,o),
(305,-202,cs)
);
},
{
closed = 1;
nodes = (
(205,96,o),
(148,166,o),
(148,280,cs),
(148,394,o),
(201,464,o),
(299,464,cs),
(396,464,o),
(458,394,o),
(456,280,cs),
(454,166,o),
(397,96,o),
(301,96,cs)
);
}
);
width = 620;
}
);
unicode = 103;
}
{
color = 1;
glyphname = h;
layers = (
{
anchors = (
{
name = bottom;
pos = (319,0);
},
{
name = center;
pos = (190,640);
},
{
name = top;
pos = (142,778);
}
);
layerId = "574EE4B9-5C1A-4E7E-9985-C08FACB65BD8";
shapes = (
{
closed = 1;
nodes = (
(184,0,l),
(184,326,ls),
(184,414,o),
(240,468,o),
(335,468,cs),
(419,468,o),
(456,419,o),
(456,336,cs),
(456,0,l),
(540,0,l),
(540,351,ls),
(540,459,o),
(477,542,o),
(353,542,cs),
(260,542,o),
(194,503,o),
(174,415,c),
(184,413,l),
(184,778,l),
(100,778,l),
(100,0,l)
);
}
);
width = 620;
}
);
unicode = 104;
}
{
color = 1;
glyphname = k;
layers = (
{
anchors = (
{
name = bottom;
pos = (319,0);
},
{
name = top;
pos = (144,778);
}
);
layerId = "574EE4B9-5C1A-4E7E-9985-C08FACB65BD8";
shapes = (
{
closed = 1;
nodes = (
(554,530,l),
(442,530,l),
(172,242,l),
(172,136,l)
);
},
{
closed = 1;
nodes = (
(184,0,l),
(184,778,l),
(100,778,l),
(100,0,l)
);
},
{
closed = 1;
nodes = (
(564,0,l),
(332,330,l),
(276,272,l),
(462,0,l)
);
}
);
width = 620;
}
);
unicode = 107;
}
{
color = 1;
glyphname = l;
layers = (
{
anchors = (
{
name = bottom;
pos = (310,0);
},
{
name = center;
pos = (310,380);
},
{
name = top;
pos = (310,778);
},
{
name = topright;
pos = (428,530);
}
);
guides = (
{
angle = 270;
pos = (565,36);
}
);
layerId = "574EE4B9-5C1A-4E7E-9985-C08FACB65BD8";
shapes = (
{
closed = 1;
nodes = (
(355,22,l),
(355,778,l),
(271,757,l),
(271,22,l)
);
},
{
closed = 1;
nodes = (
(565,0,l),
(565,72,l),
(65,72,l),
(65,0,l)
);
},
{
closed = 1;
nodes = (
(343,706,l),
(355,778,l),
(65,778,l),
(65,706,l)
);
}
);
width = 620;
},
{
anchors = (
{
name = bottom;
pos = (268,0);
},
{
name = center;
pos = (268,265);
},
{
name = top;
pos = (268,788);
},
{
name = topright;
pos = (378,550);
}
);
associatedMasterId = "574EE4B9-5C1A-4E7E-9985-C08FACB65BD8";
layerId = "796A2076-F8C0-4F29-8252-957044F0D968";
name = "7 Jul 25 13:46";
shapes = (
{
closed = 1;
nodes = (
(462,-12,o),
(512,-2,o),
(540,8,c),
(540,82,l),
(504,70,o),
(462,62,o),
(408,62,cs),
(338,62,o),
(320,83,o),
(320,134,cs),
(320,788,l),
(236,788,l),
(236,122,ls),
(236,26,o),
(278,-12,o),
(402,-12,cs)
);
},
{
closed = 1;
nodes = (
(308,714,l),
(308,788,l),
(60,788,l),
(60,714,l)
);
}
);
width = 660;
}
);
unicode = 108;
}
{
color = 1;
glyphname = m;
layers = (
{
anchors = (
{
name = bottom;
pos = (310,0);
},
{
name = top;
pos = (336,530);
}
);
layerId = "574EE4B9-5C1A-4E7E-9985-C08FACB65BD8";
shapes = (
{
closed = 1;
nodes = (
(120,0,l),
(120,354,ls),
(120,426,o),
(150,468,o),
(198,468,cs),
(250,468,o),
(268,428,o),
(268,376,cs),
(268,0,l),
(352,0,l),
(352,354,ls),
(352,426,o),
(382,468,o),
(430,468,cs),
(480,468,o),
(500,432,o),
(500,376,cs),
(500,0,l),
(584,0,l),
(584,388,ls),
(584,486,o),
(547,542,o),
(456,542,cs),
(384,542,o),
(340,490,o),
(328,408,c),
(338,408,l),
(330,496,o),
(298,542,o),
(228,542,cs),
(161,542,o),
(118,492,o),
(106,414,c),
(116,412,l),
(113,530,l),
(36,530,l),
(36,0,l)
);
}
);
width = 620;
}
);
unicode = 109;
}
{
color = 1;
glyphname = n;
layers = (
{
anchors = (
{
name = bottom;
pos = (311,0);
},
{
name = top;
pos = (311,530);
}
);
layerId = "574EE4B9-5C1A-4E7E-9985-C08FACB65BD8";
shapes = (
{
closed = 1;
nodes = (
(175,0,l),
(175,314,ls),
(175,406,o),
(245,468,o),
(329,468,cs),
(413,468,o),
(447,422,o),
(447,346,cs),
(447,0,l),
(531,0,l),
(531,354,ls),
(531,456,o),
(475,542,o),
(345,542,cs),
(257,542,o),
(175,484,o),
(157,392,c),
(171,386,l),
(168,530,l),
(91,530,l),
(91,0,l)
);
}
);
width = 620;
}
);
unicode = 110;
}
{
color = 1;
glyphname = o;
layers = (
{
anchors = (
{
name = bottom;
pos = (310,0);
},
{
name = center;
pos = (310,265);
},
{
name = ogonek;
pos = (387,0);
},
{
name = top;
pos = (310,530);
}
);
layerId = "574EE4B9-5C1A-4E7E-9985-C08FACB65BD8";
shapes = (
{
closed = 1;
nodes = (
(470,-12,o),
(550,95,o),
(550,265,cs),
(550,435,o),
(470,542,o),
(310,542,cs),
(150,542,o),
(70,435,o),
(70,265,cs),
(70,95,o),
(150,-12,o),
(310,-12,cs)
);
},
{
closed = 1;
nodes = (
(202,64,o),
(158,135,o),
(158,265,cs),
(158,395,o),
(202,466,o),
(310,466,cs),
(417,466,o),
(462,395,o),
(462,265,cs),
(462,135,o),
(417,64,o),
(310,64,cs)
);
}
);
width = 620;
}
);
unicode = 111;
}
{
color = 1;
glyphname = p;
layers = (
{
anchors = (
{
name = bottom;
pos = (343,0);
},
{
name = top;
pos = (344,530);
}
);
layerId = "574EE4B9-5C1A-4E7E-9985-C08FACB65BD8";
shapes = (
{
closed = 1;
nodes = (
(184,-190,l),
(184,114,l),
(170,102,l),
(188,34,o),
(260,-12,o),
(352,-12,cs),
(516,-12,o),
(580,119,o),
(580,265,cs),
(580,411,o),
(516,542,o),
(352,542,cs),
(260,542,o),
(194,498,o),
(168,416,c),
(180,410,l),
(178,530,l),
(100,530,l),
(100,-190,l)
);
},
{
closed = 1;
nodes = (
(241,66,o),
(184,135,o),
(184,265,cs),
(184,395,o),
(242,464,o),
(344,464,cs),
(442,464,o),
(492,389,o),
(492,265,cs),
(492,141,o),
(442,66,o),
(344,66,cs)
);
}
);
width = 620;
}
);
unicode = 112;
}
{
color = 1;
glyphname = q;
layers = (
{
anchors = (
{
name = bottom;
pos = (276,0);
},
{
name = top;
pos = (276,530);
}
);
layerId = "574EE4B9-5C1A-4E7E-9985-C08FACB65BD8";
shapes = (
{
closed = 1;
nodes = (
(520,530,l),
(442,530,l),
(440,410,l),
(452,416,l),
(426,498,o),
(360,542,o),
(268,542,cs),
(104,542,o),
(40,411,o),
(40,265,cs),
(40,119,o),
(104,-12,o),
(268,-12,cs),
(360,-12,o),
(432,34,o),
(450,102,c),
(436,114,l),
(436,-190,l),
(520,-190,l)
);
},
{
closed = 1;
nodes = (
(178,66,o),
(128,141,o),
(128,265,cs),
(128,389,o),
(178,464,o),
(276,464,cs),
(378,464,o),
(436,395,o),
(436,265,cs),
(436,135,o),
(379,66,o),
(276,66,cs)
);
}
);
width = 620;
}
);
unicode = 113;
}
{
color = 1;
glyphname = r;
layers = (
{
anchors = (
{
name = bottom;
pos = (246,0);
},
{
name = top;
pos = (325,530);
}
);
layerId = "574EE4B9-5C1A-4E7E-9985-C08FACB65BD8";
shapes = (
{
closed = 1;
nodes = (
(456,0,l),
(456,72,l),
(248,72,l),
(288,34,l),
(288,314,ls),
(288,390,o),
(346,468,o),
(446,468,cs),
(494,468,o),
(538,462,o),
(560,456,c),
(560,530,l),
(538,536,o),
(498,542,o),
(448,542,cs),
(350,542,o),
(280,472,o),
(270,382,c),
(284,380,l),
(280,530,l),
(76,530,l),
(76,458,l),
(245,458,l),
(204,497,l),
(204,34,l),
(245,72,l),
(76,72,l),
(76,0,l)
);
}
);
width = 620;
}
);
unicode = 114;
}
{
color = 1;
glyphname = s;
layers = (
{
anchors = (
{
name = bottom;
pos = (318,0);
},
{
name = top;
pos = (308,530);
}
);
background = {
shapes = (
{
closed = 1;
nodes = (
(444,-12,o),
(526,41,o),
(526,146,cs),
(526,243,o),
(470,287,o),
(322,304,cs),
(216,316,o),
(192,332,o),
(192,376,cs),
(192,428,o),
(228,465,o),
(308,465,cs),
(398,465,o),
(428,434,o),
(434,380,c),
(520,380,l),
(514,456,o),
(468,542,o),
(308,542,cs),
(180,542,o),
(110,468,o),
(110,376,cs),
(110,284,o),
(150,249,o),
(306,228,cs),
(426,212,o),
(446,192,o),
(446,144,cs),
(446,88,o),
(408,65,o),
(320,65,cs),
(226,65,o),
(194,94,o),
(180,154,c),
(94,154,l),
(104,56,o),
(170,-12,o),
(318,-12,cs)
);
}
);
};
layerId = "574EE4B9-5C1A-4E7E-9985-C08FACB65BD8";
shapes = (
{
closed = 1;
nodes = (
(444,-12,o),
(526,41,o),
(526,146,cs),
(526,243,o),
(470,286,o),
(322,304,cs),
(216,317,o),
(192,332,o),
(192,376,cs),
(192,428,o),
(228,465,o),
(308,465,cs),
(398,465,o),
(428,434,o),
(434,380,c),
(520,380,l),
(514,456,o),
(468,542,o),
(308,542,cs),
(180,542,o),
(110,468,o),
(110,375,cs),
(110,283,o),
(161,247,o),
(306,228,cs),
(422,213,o),
(446,192,o),
(446,145,cs),
(446,88,o),
(408,65,o),
(320,65,cs),
(226,65,o),
(194,94,o),
(180,154,c),
(94,154,l),
(104,56,o),
(170,-12,o),
(318,-12,cs)
);
}
);
width = 620;
}
);
unicode = 115;
}
{
color = 1;
glyphname = t;
layers = (
{
anchors = (
{
name = bottom;
pos = (378,0);
},
{
name = center;
pos = (280,310);
},
{
name = top;
pos = (255,695);
},
{
name = topright;
pos = (402,570);
}
);
guides = (
{
angle = 270;
pos = (540,70);
}
);
layerId = "574EE4B9-5C1A-4E7E-9985-C08FACB65BD8";
shapes = (
{
closed = 1;
nodes = (
(468,-12,o),
(520,-7,o),
(540,-2,c),
(540,70,l),
(518,65,o),
(468,60,o),
(424,60,cs),
(330,60,o),
(298,86,o),
(298,174,cs),
(298,694,l),
(214,694,l),
(214,162,ls),
(214,36,o),
(274,-12,o),
(414,-12,cs)
);
},
{
closed = 1;
nodes = (
(530,458,l),
(530,530,l),
(60,530,l),
(60,458,l)
);
}
);
width = 620;
},
{
anchors = (
{
name = bottom;
pos = (400,0);
},
{
name = center;
pos = (328,310);
},
{
name = top;
pos = (338,550);
},
{
name = topright;
pos = (386,636);
}
);
associatedMasterId = "574EE4B9-5C1A-4E7E-9985-C08FACB65BD8";
background = {
anchors = (
{
name = bottom;
pos = (350,0);
},
{
name = center;
pos = (298,265);
},
{
name = top;
pos = (298,530);
},
{
name = topright;
pos = (346,616);
}
);
shapes = (
{
closed = 1;
nodes = (
(520,0,l),
(520,74,l),
(378,74,ls),
(331,74,o),
(309,97,o),
(309,146,cs),
(309,670,l),
(225,670,l),
(225,146,ls),
(225,47,o),
(275,0,o),
(378,0,cs)
);
},
{
closed = 1;
nodes = (
(520,456,l),
(520,530,l),
(50,530,l),
(50,456,l)
);
}
);
};
layerId = "25186DC0-57AD-43C9-AB87-10EEEAF49170";
name = "17 Jul 25 13:18";
shapes = (
{
closed = 1;
nodes = (
(244,154,ls),
(244,52,o),
(305,-12,o),
(448,-12,cs),
(489,-12,o),
(543,-8,o),
(572,-2,c),
(572,72,l),
(542,66,o),
(495,62,o),
(454,62,cs),
(362,62,o),
(328,88,o),
(328,156,cs),
(328,778,l),
(244,778,l)
);
}
);
visible = 1;
width = 646;
},
{
anchors = (
{
name = bottom;
pos = (400,0);
},
{
name = center;
pos = (328,310);
},
{
name = top;
pos = (338,550);
},
{
name = topright;
pos = (386,636);
}
);
associatedMasterId = "574EE4B9-5C1A-4E7E-9985-C08FACB65BD8";
background = {
anchors = (
{
name = bottom;
pos = (350,0);
},
{
name = center;
pos = (298,265);
},
{
name = top;
pos = (298,530);
},
{
name = topright;
pos = (346,616);
}
);
shapes = (
{
closed = 1;
nodes = (
(520,0,l),
(520,74,l),
(378,74,ls),
(331,74,o),
(309,97,o),
(309,146,cs),
(309,670,l),
(225,670,l),
(225,146,ls),
(225,47,o),
(275,0,o),
(378,0,cs)
);
},
{
closed = 1;
nodes = (
(520,456,l),
(520,530,l),
(50,530,l),
(50,456,l)
);
}
);
};
layerId = "AED0A331-8DF0-481D-B90A-D7AE13C9735A";
name = "14 Jul 25 at 14:44";
shapes = (
{
closed = 1;
nodes = (
(484,-12,o),
(540,-6,o),
(570,0,c),
(570,74,l),
(544,68,o),
(492,62,o),
(440,62,cs),
(346,62,o),
(328,86,o),
(328,156,cs),
(328,704,l),
(244,704,l),
(244,148,ls),
(244,29,o),
(289,-12,o),
(440,-12,cs)
);
},
{
closed = 1;
nodes = (
(560,476,l),
(560,550,l),
(90,550,l),
(90,476,l)
);
}
);
width = 646;
}
);
unicode = 116;
}
{
color = 1;
glyphname = u;
layers = (
{
anchors = (
{
name = bottom;
pos = (290,0);
},
{
name = ogonek;
pos = (530,0);
},
{
name = top;
pos = (309,530);
}
);
layerId = "574EE4B9-5C1A-4E7E-9985-C08FACB65BD8";
shapes = (
{
closed = 1;
nodes = (
(381,-12,o),
(443,44,o),
(463,124,c),
(450,130,l),
(454,0,l),
(530,0,l),
(530,530,l),
(446,530,l),
(446,220,ls),
(446,123,o),
(393,62,o),
(290,62,cs),
(208,62,o),
(174,102,o),
(174,180,cs),
(174,530,l),
(90,530,l),
(90,170,ls),
(90,60,o),
(154,-12,o),
(280,-12,cs)
);
}
);
width = 620;
}
);
unicode = 117;
}
{
color = 1;
glyphname = v;
layers = (
{
anchors = (
{
name = bottom;
pos = (310,0);
},
{
name = top;
pos = (310,530);
}
);
layerId = "574EE4B9-5C1A-4E7E-9985-C08FACB65BD8";
shapes = (
{
closed = 1;
nodes = (
(363,0,l),
(559,530,l),
(467,530,l),
(310,86,l),
(153,530,l),
(61,530,l),
(257,0,l)
);
}
);
width = 620;
}
);
unicode = 118;
}
{
color = 9;
glyphname = w;
layers = (
{
anchors = (
{
name = bottom;
pos = (310,0);
},
{
name = top;
pos = (310,530);
}
);
layerId = "574EE4B9-5C1A-4E7E-9985-C08FACB65BD8";
shapes = (
{
closed = 1;
nodes = (
(226,0,l),
(318,458,l),
(302,458,l),
(394,0,l),
(500,0,l),
(600,530,l),
(516,530,l),
(440,48,l),
(452,48,l),
(354,530,l),
(266,530,l),
(168,48,l),
(180,48,l),
(104,530,l),
(20,530,l),
(121,0,l)
);
}
);
width = 620;
}
);
unicode = 119;
}
{
color = 1;
glyphname = x;
layers = (
{
anchors = (
{
name = bottom;
pos = (310,0);
},
{
name = top;
pos = (310,530);
}
);
layerId = "574EE4B9-5C1A-4E7E-9985-C08FACB65BD8";
shapes = (
{
closed = 1;
nodes = (
(156,0,l),
(310,216,l),
(464,0,l),
(560,0,l),
(362,270,l),
(551,530,l),
(455,530,l),
(312,328,l),
(166,530,l),
(70,530,l),
(260,272,l),
(60,0,l)
);
}
);
width = 620;
}
);
unicode = 120;
}
{
color = 1;
glyphname = y;
layers = (
{
anchors = (
{
name = bottom;
pos = (220,-202);
},
{
name = top;
pos = (309,530);
}
);
layerId = "574EE4B9-5C1A-4E7E-9985-C08FACB65BD8";
shapes = (
{
closed = 1;
nodes = (
(265,-202,o),
(299,-190,o),
(328,-108,cs),
(556,530,l),
(466,530,l),
(256,-96,ls),
(248,-121,o),
(234,-130,o),
(206,-130,cs),
(185,-130,o),
(163,-128,o),
(148,-126,c),
(148,-198,l),
(160,-200,o),
(188,-202,o),
(210,-202,cs)
);
},
{
closed = 1;
nodes = (
(322,76,l),
(154,530,l),
(64,530,l),
(282,-28,l)
);
}
);
width = 620;
}
);
unicode = 121;
}
{
color = 1;
glyphname = z;
layers = (
{
anchors = (
{
name = bottom;
pos = (310,0);
},
{
name = top;
pos = (310,530);
}
);
layerId = "574EE4B9-5C1A-4E7E-9985-C08FACB65BD8";
shapes = (
{
closed = 1;
nodes = (
(530,0,l),
(530,72,l),
(178,72,l),
(522,450,l),
(522,530,l),
(100,530,l),
(100,458,l),
(434,458,l),
(90,80,l),
(90,0,l)
);
}
);
width = 620;
}
);
unicode = 122;
}
{
color = 9;
glyphname = braceleft;
layers = (
{
layerId = "574EE4B9-5C1A-4E7E-9985-C08FACB65BD8";
shapes = (
{
closed = 1;
nodes = (
(500,-96,l),
(500,-22,l),
(413,-22,ls),
(352,-22,o),
(330,9,o),
(330,70,cs),
(330,197,ls),
(330,297,o),
(298,357,o),
(200,367,c),
(200,373,l),
(298,383,o),
(330,443,o),
(330,543,cs),
(330,670,ls),
(330,731,o),
(352,762,o),
(413,762,cs),
(500,762,l),
(500,836,l),
(412,836,ls),
(296,836,o),
(250,769,o),
(250,668,cs),
(250,529,ls),
(250,443,o),
(228,411,o),
(120,411,c),
(120,329,l),
(228,329,o),
(250,297,o),
(250,211,cs),
(250,72,ls),
(250,-29,o),
(296,-96,o),
(412,-96,cs)
);
}
);
width = 620;
}
);
unicode = 123;
}
{
color = 1;
glyphname = bar;
layers = (
{
guides = (
{
pos = (156,750);
},
{
pos = (156,-110);
}
);
layerId = "574EE4B9-5C1A-4E7E-9985-C08FACB65BD8";
shapes = (
{
closed = 1;
nodes = (
(350,-190,l),
(350,778,l),
(270,778,l),
(270,-190,l)
);
}
);
width = 620;
}
);
unicode = 124;
}
{
color = 1;
glyphname = asciitilde;
layers = (
{
layerId = "574EE4B9-5C1A-4E7E-9985-C08FACB65BD8";
name = Regular;
shapes = (
{
closed = 1;
nodes = (
(480,202,o),
(532,270,o),
(532,388,c),
(456,388,l),
(456,316,o),
(438,280,o),
(404,280,cs),
(378,280,o),
(368,290,o),
(332,334,cs),
(294,380,o),
(269,400,o),
(218,400,cs),
(141,400,o),
(88,332,o),
(88,214,c),
(164,214,l),
(164,286,o),
(181,322,o),
(216,322,cs),
(238,322,o),
(251,312,o),
(288,268,cs),
(330,218,o),
(355,202,o),
(402,202,cs)
);
}
);
width = 620;
}
);
unicode = 126;
}
{
color = 1;
glyphname = cent;
layers = (
{
layerId = "574EE4B9-5C1A-4E7E-9985-C08FACB65BD8";
shapes = (
{
closed = 1;
nodes = (
(345,-12,l),
(345,752,l),
(275,752,l),
(275,-12,l)
);
},
{
alignment = -1;
pos = (0,90);
ref = c;
}
);
width = 620;
}
);
unicode = 162;
}
{
color = 1;
glyphname = sterling;
layers = (
{
layerId = "574EE4B9-5C1A-4E7E-9985-C08FACB65BD8";
shapes = (
{
closed = 1;
nodes = (
(560,0,l),
(560,80,l),
(166,80,l),
(244,127,o),
(276,186,o),
(276,254,cs),
(276,357,o),
(208,422,o),
(208,546,cs),
(208,622,o),
(262,668,o),
(336,668,cs),
(416,668,o),
(451,635,o),
(460,565,c),
(560,565,l),
(548,669,o),
(479,752,o),
(332,752,cs),
(208,752,o),
(124,666,o),
(124,550,cs),
(124,432,o),
(192,363,o),
(192,256,cs),
(192,172,o),
(141,125,o),
(80,82,c),
(80,0,l)
);
},
{
closed = 1;
nodes = (
(440,317,l),
(440,391,l),
(60,391,l),
(60,317,l)
);
}
);
width = 620;
}
);
unicode = 163;
}
{
color = 1;
glyphname = currency;
layers = (
{
layerId = "574EE4B9-5C1A-4E7E-9985-C08FACB65BD8";
shapes = (
{
closed = 1;
nodes = (
(426,176,o),
(521,271,o),
(521,387,cs),
(521,503,o),
(426,598,o),
(310,598,cs),
(194,598,o),
(99,503,o),
(99,387,cs),
(99,271,o),
(194,176,o),
(310,176,cs)
);
},
{
closed = 1;
nodes = (
(232,246,o),
(169,309,o),
(169,387,cs),
(169,465,o),
(232,528,o),
(310,528,cs),
(386,528,o),
(451,465,o),
(451,387,cs),
(451,309,o),
(386,246,o),
(310,246,cs)
);
},
{
closed = 1;
nodes = (
(230,254,l),
(174,310,l),
(40,176,l),
(96,121,l)
);
},
{
closed = 1;
nodes = (
(580,176,l),
(446,310,l),
(390,254,l),
(524,121,l)
);
},
{
closed = 1;
nodes = (
(580,599,l),
(524,654,l),
(390,521,l),
(446,465,l)
);
},
{
closed = 1;
nodes = (
(230,521,l),
(96,654,l),
(40,599,l),
(174,465,l)
);
}
);
width = 620;
}
);
unicode = 164;
}
{
color = 1;
glyphname = yen;
layers = (
{
layerId = "574EE4B9-5C1A-4E7E-9985-C08FACB65BD8";
shapes = (
{
alignment = -1;
ref = Y;
},
{
closed = 1;
nodes = (
(533,142,l),
(533,220,l),
(87,220,l),
(87,142,l)
);
},
{
closed = 1;
nodes = (
(533,320,l),
(533,398,l),
(87,398,l),
(87,320,l)
);
}
);
width = 620;
}
);
unicode = 165;
}
{
color = 1;
glyphname = section;
layers = (
{
layerId = "574EE4B9-5C1A-4E7E-9985-C08FACB65BD8";
shapes = (
{
closed = 1;
nodes = (
(442,120,l),
(490,152,o),
(530,210,o),
(530,276,cs),
(530,365,o),
(485,428,o),
(330,466,cs),
(216,494,o),
(190,513,o),
(190,573,cs),
(190,633,o),
(230,678,o),
(318,678,cs),
(412,678,o),
(443,643,o),
(448,578,c),
(528,578,l),
(523,683,o),
(455,752,o),
(318,752,cs),
(184,752,o),
(113,674,o),
(113,573,cs),
(113,476,o),
(156,433,o),
(285,401,cs),
(431,365,o),
(452,333,o),
(452,270,cs),
(452,226,o),
(430,192,o),
(396,162,c)
);
},
{
closed = 1;
nodes = (
(206,470,l),
(146,434,o),
(108,378,o),
(108,312,cs),
(108,227,o),
(150,177,o),
(283,143,cs),
(429,105,o),
(446,71,o),
(446,12,cs),
(446,-55,o),
(400,-78,o),
(308,-78,cs),
(222,-78,o),
(181,-50,o),
(170,24,c),
(90,24,l),
(101,-92,o),
(184,-152,o),
(312,-152,cs),
(456,-152,o),
(524,-80,o),
(524,16,cs),
(524,103,o),
(483,168,o),
(328,208,cs),
(208,239,o),
(186,259,o),
(186,314,cs),
(186,353,o),
(206,399,o),
(248,424,c)
);
}
);
width = 620;
}
);
unicode = 167;
}
{
color = 1;
glyphname = copyright;
layers = (
{
layerId = "574EE4B9-5C1A-4E7E-9985-C08FACB65BD8";
shapes = (
{
closed = 1;
nodes = (
(490,22,o),
(600,153,o),
(600,357,cs),
(600,561,o),
(490,692,o),
(310,692,cs),
(130,692,o),
(20,561,o),
(20,357,cs),
(20,153,o),
(130,22,o),
(310,22,cs)
);
},
{
closed = 1;
nodes = (
(164,76,o),
(78,177,o),
(78,357,cs),
(78,537,o),
(164,638,o),
(310,638,cs),
(456,638,o),
(542,537,o),
(542,357,cs),
(542,177,o),
(456,76,o),
(310,76,cs)
);
},
{
closed = 1;
nodes = (
(397,150,o),
(465,206,o),
(475,309,c),
(405,309,l),
(399,246,o),
(364,219,o),
(312,219,cs),
(246,219,o),
(212,267,o),
(212,357,cs),
(212,447,o),
(246,495,o),
(312,495,cs),
(363,495,o),
(397,470,o),
(402,413,c),
(472,413,l),
(464,511,o),
(394,564,o),
(312,564,cs),
(210,564,o),
(142,483,o),
(142,357,cs),
(142,231,o),
(210,150,o),
(312,150,cs)
);
}
);
width = 620;
}
);
unicode = 169;
}
{
color = 1;
glyphname = ordfeminine;
layers = (
{
layerId = "574EE4B9-5C1A-4E7E-9985-C08FACB65BD8";
shapes = (
{
closed = 1;
nodes = (
(359,308,o),
(424,350,o),
(436,405,c),
(423,405,l),
(428,316,l),
(492,316,l),
(492,599,ls),
(492,701,o),
(432,752,o),
(319,752,cs),
(199,752,o),
(146,693,o),
(141,616,c),
(219,616,l),
(223,656,o),
(242,688,o),
(319,688,cs),
(393,688,o),
(419,655,o),
(419,595,cs),
(419,568,l),
(277,555,ls),
(178,547,o),
(128,499,o),
(128,432,cs),
(128,359,o),
(187,308,o),
(285,308,cs)
);
},
{
closed = 1;
nodes = (
(236,368,o),
(206,389,o),
(206,432,cs),
(206,475,o),
(224,492,o),
(282,498,cs),
(419,511,l),
(419,490,ls),
(419,418,o),
(378,368,o),
(289,368,cs)
);
}
);
width = 620;
}
);
unicode = 170;
}
{
color = 1;
glyphname = logicalnot;
layers = (
{
layerId = "574EE4B9-5C1A-4E7E-9985-C08FACB65BD8";
shapes = (
{
closed = 1;
nodes = (
(540,66,l),
(540,341,l),
(80,341,l),
(80,263,l),
(458,263,l),
(458,66,l)
);
}
);
width = 620;
}
);
unicode = 172;
}
{
color = 1;
glyphname = registered;
layers = (
{
layerId = "574EE4B9-5C1A-4E7E-9985-C08FACB65BD8";
shapes = (
{
closed = 1;
nodes = (
(462,205,o),
(582,328,o),
(582,479,cs),
(582,630,o),
(462,752,o),
(311,752,cs),
(159,752,o),
(38,630,o),
(38,479,cs),
(38,328,o),
(159,205,o),
(311,205,cs)
);
},
{
closed = 1;
nodes = (
(183,259,o),
(96,359,o),
(96,479,cs),
(96,599,o),
(183,698,o),
(311,698,cs),
(438,698,o),
(524,599,o),
(524,479,cs),
(524,359,o),
(438,259,o),
(311,259,cs)
);
},
{
closed = 1;
nodes = (
(269,324,l),
(269,456,l),
(306,456,l),
(373,324,l),
(437,324,l),
(364,462,l),
(405,473,o),
(429,503,o),
(429,548,cs),
(429,607,o),
(390,642,o),
(319,642,cs),
(209,642,l),
(209,324,l)
);
},
{
closed = 1;
nodes = (
(269,592,l),
(319,592,ls),
(349,592,o),
(369,579,o),
(369,549,cs),
(369,518,o),
(349,506,o),
(319,506,cs),
(269,506,l)
);
}
);
width = 620;
}
);
unicode = 174;
}
{
color = 1;
glyphname = degree;
layers = (
{
layerId = "574EE4B9-5C1A-4E7E-9985-C08FACB65BD8";
shapes = (
{
closed = 1;
nodes = (
(403,412,o),
(480,482,o),
(480,582,cs),
(480,682,o),
(403,752,o),
(310,752,cs),
(217,752,o),
(140,682,o),
(140,582,cs),
(140,482,o),
(217,412,o),
(310,412,cs)
);
},
{
closed = 1;
nodes = (
(258,486,o),
(218,524,o),
(218,582,cs),
(218,640,o),
(258,678,o),
(310,678,cs),
(362,678,o),
(402,640,o),
(402,582,cs),
(402,524,o),
(362,486,o),
(310,486,cs)
);
}
);
width = 620;
}
);
unicode = 176;
}
{
color = 1;
glyphname = plusminus;
layers = (
{
layerId = "574EE4B9-5C1A-4E7E-9985-C08FACB65BD8";
shapes = (
{
closed = 1;
nodes = (
(570,60,l),
(570,134,l),
(50,134,l),
(50,60,l)
);
},
{
closed = 1;
nodes = (
(349,185,l),
(349,605,l),
(271,605,l),
(271,185,l)
);
},
{
closed = 1;
nodes = (
(570,356,l),
(570,434,l),
(50,434,l),
(50,356,l)
);
}
);
width = 620;
}
);
unicode = 177;
}
{
color = 9;
glyphname = twosuperior;
layers = (
{
layerId = "574EE4B9-5C1A-4E7E-9985-C08FACB65BD8";
shapes = (
{
closed = 1;
nodes = (
(446,390,l),
(446,448,l),
(226,448,l),
(246,418,l),
(348,510,ls),
(412,567,o),
(444,598,o),
(444,664,cs),
(444,737,o),
(402,786,o),
(312,786,cs),
(222,786,o),
(174,738,o),
(174,656,c),
(240,656,l),
(240,704,o),
(262,728,o),
(312,728,cs),
(354,728,o),
(376,707,o),
(376,664,cs),
(376,622,o),
(358,597,o),
(304,548,cs),
(184,440,l),
(184,390,l)
);
}
);
width = 620;
}
);
unicode = 178;
}
{
color = 9;
glyphname = threesuperior;
layers = (
{
layerId = "574EE4B9-5C1A-4E7E-9985-C08FACB65BD8";
shapes = (
{
closed = 1;
nodes = (
(403,382,o),
(454,422,o),
(454,500,cs),
(454,555,o),
(420,591,o),
(357,599,c),
(357,589,l),
(417,599,o),
(444,631,o),
(444,680,cs),
(444,747,o),
(398,786,o),
(308,786,cs),
(218,786,o),
(178,746,o),
(170,676,c),
(236,676,l),
(238,706,o),
(258,726,o),
(308,726,cs),
(356,726,o),
(376,706,o),
(376,672,cs),
(376,634,o),
(351,622,o),
(314,622,cs),
(278,622,l),
(278,564,l),
(314,564,ls),
(361,564,o),
(386,549,o),
(386,504,cs),
(386,456,o),
(358,442,o),
(306,442,cs),
(260,442,o),
(236,458,o),
(232,502,c),
(166,502,l),
(169,425,o),
(213,382,o),
(306,382,cs)
);
}
);
width = 620;
}
);
unicode = 179;
}
{
color = 1;
glyphname = acute;
layers = (
{
layerId = "574EE4B9-5C1A-4E7E-9985-C08FACB65BD8";
shapes = (
{
closed = 1;
nodes = (
(410,740,l),
(284,740,l),
(210,512,l),
(312,512,l)
);
}
);
width = 620;
}
);
unicode = 180;
}
{
color = 1;
glyphname = micro;
layers = (
{
layerId = "574EE4B9-5C1A-4E7E-9985-C08FACB65BD8";
shapes = (
{
closed = 1;
nodes = (
(174,-190,l),
(174,52,l),
(158,46,l),
(182,10,o),
(220,-12,o),
(280,-12,cs),
(365,-12,o),
(422,27,o),
(451,90,c),
(454,0,l),
(530,0,l),
(530,530,l),
(446,530,l),
(446,220,ls),
(446,123,o),
(393,62,o),
(290,62,cs),
(208,62,o),
(174,102,o),
(174,180,cs),
(174,530,l),
(90,530,l),
(90,-190,l)
);
}
);
width = 620;
}
);
unicode = (181,956);
}
{
color = 1;
glyphname = paragraph;
layers = (
{
layerId = "574EE4B9-5C1A-4E7E-9985-C08FACB65BD8";
shapes = (
{
closed = 1;
nodes = (
(370,0,l),
(370,664,l),
(440,664,l),
(440,0,l),
(520,0,l),
(520,740,l),
(295,740,ls),
(186,740,o),
(100,662,o),
(100,538,cs),
(100,414,o),
(181,336,o),
(290,336,c),
(290,0,l)
);
}
);
width = 620;
}
);
unicode = 182;
}
{
color = 9;
glyphname = onesuperior;
layers = (
{
layerId = "574EE4B9-5C1A-4E7E-9985-C08FACB65BD8";
shapes = (
{
closed = 1;
nodes = (
(400,390,l),
(400,778,l),
(342,778,l),
(200,692,l),
(200,624,l),
(334,704,l),
(334,390,l)
);
}
);
width = 620;
}
);
unicode = 185;
}
{
color = 1;
glyphname = ordmasculine;
layers = (
{
layerId = "574EE4B9-5C1A-4E7E-9985-C08FACB65BD8";
shapes = (
{
closed = 1;
nodes = (
(443,308,o),
(510,394,o),
(510,530,cs),
(510,665,o),
(443,752,o),
(310,752,cs),
(177,752,o),
(110,665,o),
(110,530,cs),
(110,394,o),
(177,308,o),
(310,308,cs)
);
},
{
closed = 1;
nodes = (
(228,372,o),
(188,425,o),
(188,530,cs),
(188,634,o),
(228,688,o),
(310,688,cs),
(392,688,o),
(432,634,o),
(432,530,cs),
(432,425,o),
(392,372,o),
(310,372,cs)
);
}
);
width = 620;
}
);
unicode = 186;
}
{
color = 9;
glyphname = questiondown;
layers = (
{
layerId = "574EE4B9-5C1A-4E7E-9985-C08FACB65BD8";
shapes = (
{
closed = 1;
nodes = (
(446,-202,o),
(534,-106,o),
(540,30,c),
(450,30,l),
(446,-66,o),
(402,-118,o),
(306,-118,cs),
(210,-118,o),
(170,-69,o),
(170,0,cs),
(170,60,o),
(182,86,o),
(260,134,cs),
(329,177,o),
(358,227,o),
(358,312,c),
(272,312,l),
(272,253,o),
(258,221,o),
(204,186,cs),
(118,130,o),
(80,84,o),
(80,0,cs),
(80,-114,o),
(166,-202,o),
(306,-202,cs)
);
},
{
closed = 1;
nodes = (
(358,416,o),
(386,446,o),
(386,488,cs),
(386,530,o),
(358,560,o),
(314,560,cs),
(270,560,o),
(242,530,o),
(242,488,cs),
(242,446,o),
(270,416,o),
(314,416,cs)
);
}
);
width = 620;
}
);
unicode = 191;
}
{
color = 1;
glyphname = AE;
layers = (
{
anchors = (
{
name = bottom;
pos = (362,0);
},
{
name = top;
pos = (362,740);
}
);
layerId = "574EE4B9-5C1A-4E7E-9985-C08FACB65BD8";
shapes = (
{
closed = 1;
nodes = (
(102,0,l),
(296,660,l),
(318,660,l),
(318,0,l),
(600,0,l),
(600,80,l),
(404,80,l),
(404,338,l),
(580,338,l),
(580,418,l),
(404,418,l),
(404,660,l),
(592,660,l),
(592,740,l),
(236,740,l),
(10,0,l)
);
},
{
closed = 1;
nodes = (
(330,212,l),
(330,292,l),
(173,292,l),
(147,212,l)
);
}
);
width = 620;
}
);
unicode = 198;
}
{
color = 1;
glyphname = multiply;
layers = (
{
layerId = "574EE4B9-5C1A-4E7E-9985-C08FACB65BD8";
shapes = (
{
closed = 1;
nodes = (
(92,142,l),
(473,523,l),
(528,468,l),
(147,87,l)
);
},
{
closed = 1;
nodes = (
(92,468,l),
(147,523,l),
(528,142,l),
(473,87,l)
);
}
);
width = 620;
}
);
unicode = 215;
}
{
color = 1;
glyphname = Thorn;
layers = (
{
layerId = "574EE4B9-5C1A-4E7E-9985-C08FACB65BD8";
shapes = (
{
closed = 1;
nodes = (
(306,160,ls),
(454,160,o),
(550,241,o),
(550,377,cs),
(550,513,o),
(454,594,o),
(306,594,cs),
(156,594,l),
(156,514,l),
(296,514,ls),
(408,514,o),
(460,467,o),
(460,377,cs),
(460,287,o),
(408,240,o),
(296,240,cs),
(156,240,l),
(156,160,l)
);
},
{
closed = 1;
nodes = (
(176,0,l),
(176,740,l),
(90,740,l),
(90,0,l)
);
}
);
width = 620;
}
);
unicode = 222;
}
{
color = 1;
glyphname = germandbls;
layers = (
{
layerId = "574EE4B9-5C1A-4E7E-9985-C08FACB65BD8";
shapes = (
{
closed = 1;
nodes = (
(164,0,l),
(164,586,ls),
(164,672,o),
(209,718,o),
(292,718,cs),
(377,718,o),
(420,675,o),
(420,590,cs),
(420,486,o),
(362,457,o),
(281,457,cs),
(242,457,l),
(242,383,l),
(273,383,ls),
(401,383,o),
(458,335,o),
(458,228,cs),
(458,105,o),
(399,70,o),
(304,70,cs),
(279,70,o),
(254,72,o),
(230,76,c),
(230,-2,l),
(255,-6,o),
(282,-8,o),
(308,-8,cs),
(459,-8,o),
(548,74,o),
(548,228,cs),
(548,355,o),
(474,426,o),
(340,432,c),
(340,416,l),
(444,422,o),
(506,479,o),
(506,596,cs),
(506,715,o),
(423,790,o),
(292,790,cs),
(156,790,o),
(80,717,o),
(80,586,cs),
(80,0,l)
);
}
);
width = 620;
}
);
unicode = 223;
}
{
color = 1;
glyphname = ae;
layers = (
{
anchors = (
{
name = bottom;
pos = (300,0);
},
{
name = top;
pos = (300,530);
}
);
layerId = "574EE4B9-5C1A-4E7E-9985-C08FACB65BD8";
shapes = (
{
closed = 1;
nodes = (
(513,-12,o),
(560,36,o),
(582,160,c),
(497,160,l),
(487,92,o),
(465,68,o),
(426,68,cs),
(376,68,o),
(345,125,o),
(341,241,c),
(590,241,l),
(590,279,ls),
(590,459,o),
(533,542,o),
(427,542,cs),
(317,542,o),
(260,436,o),
(260,265,cs),
(260,91,o),
(314,-12,o),
(424,-12,cs)
);
},
{
closed = 1;
nodes = (
(239,-12,o),
(288,44,o),
(304,138,c),
(338,320,l),
(338,468,o),
(289,542,o),
(190,542,cs),
(105,542,o),
(50,488,o),
(38,372,c),
(122,372,l),
(126,426,o),
(144,464,o),
(190,464,cs),
(237,464,o),
(258,418,o),
(258,312,c),
(172,302,ls),
(84,292,o),
(30,225,o),
(30,141,cs),
(30,34,o),
(85,-12,o),
(158,-12,cs)
);
},
{
closed = 1;
nodes = (
(134,62,o),
(114,87,o),
(114,141,cs),
(114,185,o),
(134,224,o),
(189,231,cs),
(258,240,l),
(258,219,ls),
(258,118,o),
(234,62,o),
(172,62,cs)
);
},
{
closed = 1;
nodes = (
(348,417,o),
(376,462,o),
(422,462,cs),
(469,462,o),
(500,417,o),
(504,315,c),
(342,315,l)
);
}
);
width = 620;
}
);
unicode = 230;
}
{
color = 1;
glyphname = eth;
layers = (
{
anchors = (
{
name = bottom;
pos = (310,0);
},
{
name = top;
pos = (310,778);
}
);
layerId = "574EE4B9-5C1A-4E7E-9985-C08FACB65BD8";
shapes = (
{
closed = 1;
nodes = (
(546,670,l),
(522,734,l),
(210,620,l),
(234,556,l)
);
},
{
closed = 1;
nodes = (
(456,-12,o),
(552,89,o),
(552,261,cs),
(552,553,o),
(442,752,o),
(178,778,c),
(158,704,l),
(319,691,o),
(421,610,o),
(456,432,c),
(469,447,l),
(428,486,o),
(374,514,o),
(310,514,cs),
(164,514,o),
(68,416,o),
(68,251,cs),
(68,79,o),
(164,-12,o),
(310,-12,cs)
);
},
{
closed = 1;
nodes = (
(212,68,o),
(156,121,o),
(156,251,cs),
(156,371,o),
(212,434,o),
(310,434,cs),
(408,434,o),
(464,381,o),
(464,261,cs),
(464,131,o),
(407,68,o),
(310,68,cs)
);
}
);
width = 620;
}
);
unicode = 240;
}
{
color = 1;
glyphname = divide;
layers = (
{
layerId = "574EE4B9-5C1A-4E7E-9985-C08FACB65BD8";
shapes = (
{
closed = 1;
nodes = (
(352,50,o),
(377,77,o),
(377,114,cs),
(377,152,o),
(352,179,o),
(310,179,cs),
(268,179,o),
(243,152,o),
(243,114,cs),
(243,77,o),
(268,50,o),
(310,50,cs)
);
},
{
closed = 1;
nodes = (
(352,425,o),
(377,452,o),
(377,490,cs),
(377,527,o),
(352,554,o),
(310,554,cs),
(268,554,o),
(243,527,o),
(243,490,cs),
(243,452,o),
(268,425,o),
(310,425,cs)
);
},
{
closed = 1;
nodes = (
(540,263,l),
(540,341,l),
(80,341,l),
(80,263,l)
);
}
);
width = 620;
}
);
unicode = 247;
}
{
color = 1;
glyphname = thorn;
layers = (
{
anchors = (
{
name = bottom;
pos = (310,0);
},
{
name = top;
pos = (310,530);
}
);
layerId = "574EE4B9-5C1A-4E7E-9985-C08FACB65BD8";
shapes = (
{
closed = 1;
nodes = (
(184,-190,l),
(184,109,l),
(174,91,l),
(203,27,o),
(263,-12,o),
(350,-12,cs),
(510,-12,o),
(580,113,o),
(580,265,cs),
(580,417,o),
(510,542,o),
(350,542,cs),
(263,542,o),
(201,500,o),
(175,436,c),
(184,419,l),
(184,778,l),
(100,778,l),
(100,-190,l)
);
},
{
closed = 1;
nodes = (
(225,66,o),
(184,159,o),
(184,265,cs),
(184,371,o),
(225,464,o),
(345,464,cs),
(455,464,o),
(492,371,o),
(492,265,cs),
(492,164,o),
(453,66,o),
(343,66,cs)
);
}
);
width = 620;
}
);
unicode = 254;
}
{
color = 1;
glyphname = Aogonek;
layers = (
{
layerId = "574EE4B9-5C1A-4E7E-9985-C08FACB65BD8";
shapes = (
{
ref = A;
},
{
closed = 1;
nodes = (
(558,-202,o),
(577,-200,o),
(590,-196,c),
(590,-126,l),
(578,-129,o),
(567,-130,o),
(556,-130,cs),
(531,-130,o),
(514,-119,o),
(514,-96,cs),
(514,-64,o),
(532,-38,o),
(590,0,c),
(498,0,l),
(460,-35,o),
(434,-75,o),
(434,-118,cs),
(434,-177,o),
(479,-202,o),
(540,-202,cs)
);
}
);
width = 620;
}
);
unicode = 260;
}
{
color = 1;
glyphname = dcaron;
layers = (
{
layerId = "574EE4B9-5C1A-4E7E-9985-C08FACB65BD8";
shapes = (
{
closed = 1;
nodes = (
(300,-12,o),
(347,32,o),
(372,105,c),
(359,120,l),
(364,0,l),
(440,0,l),
(440,778,l),
(356,778,l),
(356,416,l),
(368,434,l),
(354,486,o),
(304,542,o),
(222,542,cs),
(94,542,o),
(20,435,o),
(20,265,cs),
(20,95,o),
(92,-12,o),
(220,-12,cs)
);
},
{
closed = 1;
nodes = (
(149,66,o),
(108,144,o),
(108,265,cs),
(108,388,o),
(149,464,o),
(224,464,cs),
(320,464,o),
(356,388,o),
(356,265,cs),
(356,144,o),
(320,66,o),
(226,66,cs)
);
},
{
pos = (250,0);
ref = caroncomb.alt;
}
);
width = 620;
}
);
unicode = 271;
}
{
color = 1;
glyphname = eogonek;
layers = (
{
layerId = "574EE4B9-5C1A-4E7E-9985-C08FACB65BD8";
shapes = (
{
ref = e;
},
{
closed = 1;
nodes = (
(414,-202,o),
(433,-200,o),
(446,-196,c),
(446,-126,l),
(434,-129,o),
(423,-130,o),
(412,-130,cs),
(387,-130,o),
(370,-118,o),
(370,-91,cs),
(370,-58,o),
(395,-22,o),
(461,33,c),
(370,0,l),
(316,-32,o),
(290,-74,o),
(290,-118,cs),
(290,-176,o),
(335,-202,o),
(396,-202,cs)
);
}
);
width = 620;
}
);
unicode = 281;
}
{
glyphname = idotless;
layers = (
{
anchors = (
{
name = bottom;
pos = (333,0);
},
{
name = ogonek;
pos = (558,0);
},
{
name = top;
pos = (333,530);
}
);
layerId = "574EE4B9-5C1A-4E7E-9985-C08FACB65BD8";
shapes = (
{
closed = 1;
nodes = (
(558,0,l),
(558,72,l),
(375,72,l),
(375,530,l),
(88,530,l),
(88,458,l),
(332,458,l),
(291,497,l),
(291,72,l),
(78,72,l),
(78,0,l)
);
}
);
width = 620;
}
);
unicode = 305;
}
{
glyphname = IJ;
layers = (
{
layerId = "574EE4B9-5C1A-4E7E-9985-C08FACB65BD8";
shapes = (
{
closed = 1;
nodes = (
(495,-12,o),
(550,67,o),
(550,230,cs),
(550,740,l),
(279,740,l),
(279,660,l),
(464,660,l),
(464,222,ls),
(464,117,o),
(442,70,o),
(380,70,cs),
(319,70,o),
(296,117,o),
(296,222,c),
(210,222,l),
(210,67,o),
(269,-12,o),
(380,-12,cs)
);
},
{
closed = 1;
nodes = (
(156,0,l),
(156,740,l),
(70,740,l),
(70,0,l)
);
}
);
width = 620;
}
);
metricLeft = H;
unicode = 306;
}
{
glyphname = ij;
layers = (
{
layerId = "574EE4B9-5C1A-4E7E-9985-C08FACB65BD8";
shapes = (
{
closed = 1;
nodes = (
(218,0,l),
(218,530,l),
(134,530,l),
(134,0,l)
);
},
{
closed = 1;
nodes = (
(216,629,o),
(242,653,o),
(242,695,cs),
(242,737,o),
(216,761,o),
(176,761,cs),
(136,761,o),
(110,737,o),
(110,695,cs),
(110,653,o),
(136,629,o),
(176,629,cs)
);
},
{
closed = 1;
nodes = (
(154,-198,o),
(212,-202,o),
(274,-202,cs),
(434,-202,o),
(486,-139,o),
(486,-9,cs),
(486,530,l),
(402,530,l),
(402,-9,ls),
(402,-106,o),
(378,-130,o),
(270,-130,cs),
(214,-130,o),
(154,-126,o),
(126,-120,c),
(126,-192,l)
);
},
{
closed = 1;
nodes = (
(484,629,o),
(510,653,o),
(510,695,cs),
(510,737,o),
(484,761,o),
(444,761,cs),
(404,761,o),
(378,737,o),
(378,695,cs),
(378,653,o),
(404,629,o),
(444,629,cs)
);
}
);
width = 620;
}
);
unicode = 307;
}
{
color = 1;
glyphname = Eng;
layers = (
{
layerId = "574EE4B9-5C1A-4E7E-9985-C08FACB65BD8";
shapes = (
{
closed = 1;
nodes = (
(311,-200,o),
(352,-202,o),
(390,-202,cs),
(482,-202,o),
(540,-146,o),
(540,-59,cs),
(540,39,l),
(454,39,l),
(454,-64,ls),
(454,-102,o),
(432,-122,o),
(390,-122,cs),
(356,-122,o),
(311,-120,o),
(287,-118,c),
(287,-198,l)
);
},
{
alignment = -1;
ref = N;
}
);
width = 620;
}
);
unicode = 330;
}
{
color = 1;
glyphname = eng;
layers = (
{
layerId = "574EE4B9-5C1A-4E7E-9985-C08FACB65BD8";
shapes = (
{
closed = 1;
nodes = (
(320,-200,o),
(357,-202,o),
(384,-202,cs),
(477,-202,o),
(530,-151,o),
(530,-64,cs),
(530,39,l),
(446,39,l),
(446,-64,ls),
(446,-108,o),
(426,-128,o),
(386,-128,cs),
(360,-128,o),
(324,-126,o),
(298,-124,c),
(298,-198,l)
);
},
{
alignment = -1;
pos = (-1,0);
ref = n;
}
);
width = 620;
}
);
unicode = 331;
}
{
color = 1;
glyphname = OE;
layers = (
{
anchors = (
{
name = bottom;
pos = (310,0);
},
{
name = top;
pos = (310,740);
}
);
layerId = "574EE4B9-5C1A-4E7E-9985-C08FACB65BD8";
shapes = (
{
closed = 1;
nodes = (
(340,-12,o),
(374,138,o),
(374,368,cs),
(374,598,o),
(340,752,o),
(212,752,cs),
(84,752,o),
(20,627,o),
(20,368,cs),
(20,111,o),
(84,-12,o),
(212,-12,cs)
);
},
{
closed = 1;
nodes = (
(142,72,o),
(110,162,o),
(110,368,cs),
(110,574,o),
(142,668,o),
(212,668,cs),
(282,668,o),
(314,574,o),
(314,368,cs),
(314,162,o),
(282,72,o),
(212,72,cs)
);
},
{
closed = 1;
nodes = (
(600,0,l),
(600,80,l),
(404,80,l),
(404,338,l),
(580,338,l),
(580,418,l),
(404,418,l),
(404,660,l),
(592,660,l),
(592,740,l),
(318,740,l),
(318,0,l)
);
}
);
width = 620;
}
);
unicode = 338;
}
{
color = 1;
glyphname = oe;
layers = (
{
layerId = "574EE4B9-5C1A-4E7E-9985-C08FACB65BD8";
shapes = (
{
closed = 1;
nodes = (
(525,-12,o),
(570,36,o),
(592,160,c),
(507,160,l),
(497,92,o),
(475,68,o),
(436,68,cs),
(386,68,o),
(356,129,o),
(351,241,c),
(600,241,l),
(600,279,ls),
(600,459,o),
(543,542,o),
(437,542,cs),
(327,542,o),
(268,436,o),
(268,265,cs),
(268,97,o),
(326,-12,o),
(436,-12,cs)
);
},
{
closed = 1;
nodes = (
(288,-12,o),
(349,104,o),
(349,265,cs),
(349,436,o),
(288,542,o),
(186,542,cs),
(85,542,o),
(20,455,o),
(20,265,cs),
(20,75,o),
(85,-12,o),
(186,-12,cs)
);
},
{
closed = 1;
nodes = (
(137,68,o),
(106,123,o),
(106,265,cs),
(106,407,o),
(137,462,o),
(186,462,cs),
(236,462,o),
(266,408,o),
(266,265,cs),
(266,122,o),
(236,68,o),
(186,68,cs)
);
},
{
closed = 1;
nodes = (
(358,417,o),
(386,462,o),
(432,462,cs),
(479,462,o),
(510,417,o),
(514,315,c),
(352,315,l)
);
}
);
width = 620;
}
);
unicode = 339;
}
{
color = 1;
glyphname = Schwa;
layers = (
{
anchors = (
{
name = bottom;
pos = (310,0);
},
{
name = top;
pos = (310,740);
}
);
layerId = "574EE4B9-5C1A-4E7E-9985-C08FACB65BD8";
shapes = (
{
closed = 1;
nodes = (
(462,-12,o),
(570,108,o),
(570,368,cs),
(570,627,o),
(474,752,o),
(310,752,cs),
(166,752,o),
(81,658,o),
(60,508,c),
(152,508,l),
(164,606,o),
(211,668,o),
(310,668,cs),
(420,668,o),
(480,574,o),
(480,368,cs),
(480,162,o),
(416,72,o),
(300,72,cs),
(196,72,o),
(136,153,o),
(136,300,c),
(494,300,l),
(494,380,l),
(50,380,l),
(50,324,ls),
(50,110,o),
(146,-12,o),
(300,-12,cs)
);
}
);
width = 620;
}
);
unicode = 399;
}
{
color = 1;
glyphname = florin;
layers = (
{
layerId = "574EE4B9-5C1A-4E7E-9985-C08FACB65BD8";
shapes = (
{
closed = 1;
nodes = (
(174,-1,ls),
(265,-2,o),
(316,44,o),
(325,133,cs),
(375,610,ls),
(379,646,o),
(400,666,o),
(436,666,cs),
(540,666,l),
(540,739,l),
(443,740,ls),
(353,741,o),
(302,695,o),
(293,606,cs),
(244,129,ls),
(240,93,o),
(219,74,o),
(182,74,cs),
(80,74,l),
(80,0,l)
);
},
{
closed = 1;
nodes = (
(540,456,l),
(540,530,l),
(143,530,l),
(143,456,l)
);
}
);
width = 620;
}
);
unicode = 402;
}
{
color = 1;
glyphname = Gstroke;
layers = (
{
layerId = "574EE4B9-5C1A-4E7E-9985-C08FACB65BD8";
shapes = (
{
closed = 1;
nodes = (
(590,161,l),
(590,229,l),
(316,229,l),
(316,161,l)
);
},
{
pos = (-10,0);
ref = G;
}
);
width = 620;
}
);
unicode = 484;
}
{
color = 9;
glyphname = gstroke;
layers = (
{
layerId = "574EE4B9-5C1A-4E7E-9985-C08FACB65BD8";
shapes = (
{
closed = 1;
nodes = (
(600,247,l),
(600,315,l),
(295,315,l),
(295,247,l)
);
},
{
alignment = -1;
ref = g;
}
);
width = 620;
}
);
unicode = 485;
}
{
glyphname = jdotless;
layers = (
{
anchors = (
{
name = bottom;
pos = (248,-202);
},
{
name = top;
pos = (418,530);
}
);
layerId = "574EE4B9-5C1A-4E7E-9985-C08FACB65BD8";
shapes = (
{
closed = 1;
nodes = (
(128,-198,o),
(186,-202,o),
(248,-202,cs),
(408,-202,o),
(460,-139,o),
(460,-9,cs),
(460,530,l),
(120,530,l),
(120,458,l),
(417,458,l),
(376,497,l),
(376,-9,ls),
(376,-106,o),
(352,-130,o),
(244,-130,cs),
(188,-130,o),
(128,-126,o),
(100,-120,c),
(100,-192,l)
);
}
);
width = 620;
}
);
unicode = 567;
}
{
color = 1;
glyphname = gravecomb;
layers = (
{
anchors = (
{
name = _top;
pos = (353,530);
},
{
name = top;
pos = (370,778);
}
);
layerId = "574EE4B9-5C1A-4E7E-9985-C08FACB65BD8";
shapes = (
{
closed = 1;
nodes = (
(394,620,l),
(320,778,l),
(226,778,l),
(324,620,l)
);
}
);
width = 620;
}
);
unicode = 768;
}
{
color = 1;
glyphname = acutecomb;
layers = (
{
anchors = (
{
name = _top;
pos = (268,530);
},
{
name = top;
pos = (268,778);
}
);
layerId = "574EE4B9-5C1A-4E7E-9985-C08FACB65BD8";
shapes = (
{
closed = 1;
nodes = (
(296,620,l),
(394,778,l),
(300,778,l),
(226,620,l)
);
}
);
width = 620;
}
);
unicode = 769;
}
{
color = 1;
glyphname = circumflexcomb;
layers = (
{
anchors = (
{
name = _top;
pos = (310,530);
},
{
name = top;
pos = (310,778);
}
);
layerId = "574EE4B9-5C1A-4E7E-9985-C08FACB65BD8";
shapes = (
{
closed = 1;
nodes = (
(234,610,l),
(320,744,l),
(300,744,l),
(386,610,l),
(464,610,l),
(356,778,l),
(264,778,l),
(156,610,l)
);
}
);
width = 620;
}
);
unicode = 770;
}
{
color = 1;
glyphname = tildecomb;
layers = (
{
anchors = (
{
name = _top;
pos = (310,530);
},
{
name = top;
pos = (310,760);
}
);
background = {
shapes = (
{
closed = 1;
nodes = (
(429,626,o),
(466,672,o),
(470,758,c),
(416,758,l),
(412,698,o),
(399,682,o),
(374,682,cs),
(358,682,o),
(344,692,o),
(324,710,cs),
(302,730,o),
(280,742,o),
(248,742,cs),
(192,742,o),
(152,697,o),
(150,610,c),
(204,610,l),
(206,668,o),
(224,684,o),
(248,684,cs),
(268,684,o),
(280,672,o),
(300,654,cs),
(321,635,o),
(344,626,o),
(370,626,cs)
);
}
);
};
layerId = "574EE4B9-5C1A-4E7E-9985-C08FACB65BD8";
shapes = (
{
closed = 1;
nodes = (
(429,624,o),
(466,671,o),
(470,758,c),
(416,758,l),
(412,700,o),
(399,684,o),
(374,684,cs),
(333,684,o),
(317,744,o),
(248,744,cs),
(192,744,o),
(152,698,o),
(150,610,c),
(204,610,l),
(206,666,o),
(224,682,o),
(248,682,cs),
(290,682,o),
(301,624,o),
(370,624,cs)
);
}
);
width = 620;
}
);
unicode = 771;
}
{
color = 1;
glyphname = macroncomb;
layers = (
{
anchors = (
{
name = _top;
pos = (310,530);
},
{
name = top;
pos = (310,740);
}
);
layerId = "574EE4B9-5C1A-4E7E-9985-C08FACB65BD8";
shapes = (
{
closed = 1;
nodes = (
(460,659,l),
(460,731,l),
(160,731,l),
(160,659,l)
);
}
);
width = 620;
}
);
unicode = 772;
}
{
color = 1;
glyphname = brevecomb;
layers = (
{
anchors = (
{
name = _top;
pos = (310,530);
},
{
name = top;
pos = (310,778);
}
);
layerId = "574EE4B9-5C1A-4E7E-9985-C08FACB65BD8";
shapes = (
{
closed = 1;
nodes = (
(404,610,o),
(460,663,o),
(464,778,c),
(400,778,l),
(396,704,o),
(366,676,o),
(310,676,cs),
(254,676,o),
(224,704,o),
(220,778,c),
(156,778,l),
(160,663,o),
(216,610,o),
(310,610,cs)
);
}
);
width = 620;
}
);
unicode = 774;
}
{
color = 1;
glyphname = dotaccentcomb;
layers = (
{
anchors = (
{
name = _top;
pos = (310,530);
},
{
name = top;
pos = (310,761);
}
);
layerId = "574EE4B9-5C1A-4E7E-9985-C08FACB65BD8";
shapes = (
{
closed = 1;
nodes = (
(350,629,o),
(376,653,o),
(376,695,cs),
(376,737,o),
(350,761,o),
(310,761,cs),
(270,761,o),
(244,737,o),
(244,695,cs),
(244,653,o),
(270,629,o),
(310,629,cs)
);
}
);
width = 620;
}
);
unicode = 775;
}
{
color = 1;
glyphname = dieresiscomb;
layers = (
{
anchors = (
{
name = _top;
pos = (310,530);
},
{
name = top;
pos = (310,755);
}
);
layerId = "574EE4B9-5C1A-4E7E-9985-C08FACB65BD8";
shapes = (
{
closed = 1;
nodes = (
(442,635,o),
(466,659,o),
(466,695,cs),
(466,731,o),
(442,755,o),
(408,755,cs),
(374,755,o),
(350,731,o),
(350,695,cs),
(350,659,o),
(374,635,o),
(408,635,cs)
);
},
{
closed = 1;
nodes = (
(246,635,o),
(270,659,o),
(270,695,cs),
(270,731,o),
(246,755,o),
(212,755,cs),
(178,755,o),
(154,731,o),
(154,695,cs),
(154,659,o),
(178,635,o),
(212,635,cs)
);
}
);
width = 620;
}
);
unicode = 776;
}
{
color = 1;
glyphname = ringcomb;
layers = (
{
anchors = (
{
name = _top;
pos = (310,530);
},
{
name = top;
pos = (310,790);
}
);
layerId = "574EE4B9-5C1A-4E7E-9985-C08FACB65BD8";
shapes = (
{
closed = 1;
nodes = (
(368,597,o),
(410,639,o),
(410,695,cs),
(410,751,o),
(368,793,o),
(310,793,cs),
(252,793,o),
(210,751,o),
(210,695,cs),
(210,639,o),
(252,597,o),
(310,597,cs)
);
},
{
closed = 1;
nodes = (
(281,647,o),
(262,666,o),
(262,695,cs),
(262,724,o),
(281,743,o),
(310,743,cs),
(339,743,o),
(358,724,o),
(358,695,cs),
(358,666,o),
(339,647,o),
(310,647,cs)
);
}
);
width = 620;
}
);
unicode = 778;
}
{
color = 1;
glyphname = caroncomb;
layers = (
{
anchors = (
{
name = _top;
pos = (310,530);
},
{
name = top;
pos = (310,778);
}
);
layerId = "574EE4B9-5C1A-4E7E-9985-C08FACB65BD8";
shapes = (
{
closed = 1;
nodes = (
(356,610,l),
(464,778,l),
(386,778,l),
(300,644,l),
(320,644,l),
(234,778,l),
(156,778,l),
(264,610,l)
);
}
);
width = 620;
}
);
unicode = 780;
}
{
color = 1;
glyphname = commaturnedabovecomb;
layers = (
{
anchors = (
{
name = _top;
pos = (296,530);
},
{
name = top;
pos = (296,809);
}
);
layerId = "574EE4B9-5C1A-4E7E-9985-C08FACB65BD8";
shapes = (
{
closed = 1;
nodes = (
(308,809,l),
(242,609,l),
(338,609,l),
(378,809,l)
);
}
);
width = 620;
}
);
unicode = 786;
}
{
color = 9;
glyphname = commaaccentcomb;
layers = (
{
anchors = (
{
name = _bottom;
pos = (327,0);
},
{
name = bottom;
pos = (326,-260);
}
);
layerId = "574EE4B9-5C1A-4E7E-9985-C08FACB65BD8";
shapes = (
{
closed = 1;
nodes = (
(312,-260,l),
(378,-60,l),
(282,-60,l),
(242,-260,l)
);
}
);
width = 620;
}
);
unicode = 806;
}
{
color = 1;
glyphname = cedillacomb;
layers = (
{
anchors = (
{
name = _bottom;
pos = (288,0);
}
);
layerId = "574EE4B9-5C1A-4E7E-9985-C08FACB65BD8";
shapes = (
{
closed = 1;
nodes = (
(363,-220,o),
(408,-186,o),
(408,-124,cs),
(408,-65,o),
(365,-27,o),
(265,-42,c),
(292,-75,l),
(326,20,l),
(268,20,l),
(241,-55,l),
(241,-89,l),
(263,-89,ls),
(326,-89,o),
(344,-98,o),
(344,-124,cs),
(344,-151,o),
(322,-162,o),
(289,-162,cs),
(254,-162,o),
(228,-156,o),
(212,-150,c),
(212,-210,l),
(228,-215,o),
(258,-220,o),
(288,-220,cs)
);
}
);
width = 620;
}
);
unicode = 807;
}
{
color = 9;
glyphname = ogonekcomb;
layers = (
{
anchors = (
{
name = _ogonek;
pos = (388,0);
}
);
layerId = "574EE4B9-5C1A-4E7E-9985-C08FACB65BD8";
shapes = (
{
closed = 1;
nodes = (
(356,-202,o),
(375,-200,o),
(388,-196,c),
(388,-126,l),
(376,-129,o),
(365,-130,o),
(354,-130,cs),
(329,-130,o),
(312,-119,o),
(312,-96,cs),
(312,-64,o),
(330,-38,o),
(388,0,c),
(344,16,l),
(268,-17,o),
(232,-66,o),
(232,-118,cs),
(232,-176,o),
(277,-202,o),
(338,-202,cs)
);
}
);
width = 620;
}
);
unicode = 808;
}
{
color = 1;
glyphname = strokeshortcomb;
layers = (
{
anchors = (
{
name = _center;
pos = (310,351);
}
);
layerId = "574EE4B9-5C1A-4E7E-9985-C08FACB65BD8";
shapes = (
{
closed = 1;
nodes = (
(480,316,l),
(480,386,l),
(140,386,l),
(140,316,l)
);
}
);
width = 620;
}
);
unicode = 821;
}
{
color = 1;
glyphname = strokelongcomb;
layers = (
{
anchors = (
{
name = _center;
pos = (310,572);
}
);
layerId = "574EE4B9-5C1A-4E7E-9985-C08FACB65BD8";
shapes = (
{
closed = 1;
nodes = (
(600,534,l),
(600,612,l),
(20,612,l),
(20,534,l)
);
}
);
width = 620;
}
);
unicode = 822;
}
{
color = 1;
glyphname = slashshortcomb;
layers = (
{
anchors = (
{
name = _center;
pos = (310,391);
}
);
layerId = "574EE4B9-5C1A-4E7E-9985-C08FACB65BD8";
shapes = (
{
closed = 1;
nodes = (
(520,444,l),
(520,518,l),
(100,338,l),
(100,264,l)
);
}
);
width = 620;
}
);
unicode = 823;
}
{
color = 1;
glyphname = slashlongcomb;
layers = (
{
anchors = (
{
name = _center;
pos = (310,263);
}
);
layerId = "574EE4B9-5C1A-4E7E-9985-C08FACB65BD8";
shapes = (
{
closed = 1;
nodes = (
(160,-22,l),
(540,552,l),
(460,552,l),
(80,-22,l)
);
}
);
width = 620;
}
);
unicode = 824;
}
{
color = 1;
glyphname = Lambda;
layers = (
{
layerId = "574EE4B9-5C1A-4E7E-9985-C08FACB65BD8";
shapes = (
{
closed = 1;
nodes = (
(118,0,l),
(310,660,l),
(502,0,l),
(590,0,l),
(368,740,l),
(252,740,l),
(30,0,l)
);
}
);
width = 620;
}
);
unicode = 923;
}
{
color = 1;
glyphname = Omega;
layers = (
{
layerId = "574EE4B9-5C1A-4E7E-9985-C08FACB65BD8";
shapes = (
{
closed = 1;
nodes = (
(270,0,l),
(270,80,l),
(190,104,o),
(120,220,o),
(120,410,cs),
(120,573,o),
(180,668,o),
(310,668,cs),
(440,668,o),
(500,573,o),
(500,410,cs),
(500,220,o),
(430,104,o),
(350,80,c),
(350,0,l),
(580,0,l),
(580,80,l),
(456,80,l),
(536,136,o),
(590,242,o),
(590,410,cs),
(590,620,o),
(490,752,o),
(310,752,cs),
(130,752,o),
(30,620,o),
(30,410,cs),
(30,242,o),
(84,136,o),
(164,80,c),
(40,80,l),
(40,0,l)
);
}
);
width = 620;
}
);
unicode = 937;
}
{
color = 9;
glyphname = lambda;
layers = (
{
layerId = "574EE4B9-5C1A-4E7E-9985-C08FACB65BD8";
shapes = (
{
closed = 1;
nodes = (
(560,0,l),
(560,72,l),
(525,72,ls),
(489,72,o),
(477,80,o),
(464,126,cs),
(306,668,ls),
(285,741,o),
(244,778,o),
(162,778,cs),
(100,778,l),
(100,706,l),
(156,706,ls),
(198,706,o),
(215,693,o),
(227,650,cs),
(384,110,ls),
(408,28,o),
(436,0,o),
(518,0,cs)
);
},
{
closed = 1;
nodes = (
(148,0,l),
(331,507,l),
(272,570,l),
(60,0,l)
);
}
);
width = 620;
}
);
unicode = 955;
}
{
color = 1;
glyphname = pi;
layers = (
{
layerId = "574EE4B9-5C1A-4E7E-9985-C08FACB65BD8";
shapes = (
{
closed = 1;
nodes = (
(590,0,l),
(590,74,l),
(534,74,ls),
(500,74,o),
(476,94,o),
(476,146,cs),
(476,501,l),
(392,501,l),
(392,146,ls),
(392,48,o),
(435,0,o),
(535,0,cs)
);
},
{
closed = 1;
nodes = (
(228,0,l),
(228,498,l),
(144,498,l),
(144,0,l)
);
},
{
closed = 1;
nodes = (
(590,458,l),
(590,530,l),
(30,530,l),
(30,458,l)
);
}
);
width = 620;
}
);
unicode = 960;
}
{
color = 1;
glyphname = baht;
layers = (
{
layerId = "574EE4B9-5C1A-4E7E-9985-C08FACB65BD8";
shapes = (
{
closed = 1;
nodes = (
(327,0,ls),
(462,0,o),
(550,75,o),
(550,206,cs),
(550,320,o),
(476,386,o),
(356,386,c),
(356,380,l),
(452,380,o),
(522,445,o),
(522,542,cs),
(522,666,o),
(444,740,o),
(326,740,cs),
(80,740,l),
(80,0,l)
);
},
{
closed = 1;
nodes = (
(166,339,l),
(328,339,ls),
(412,339,o),
(460,294,o),
(460,206,cs),
(460,122,o),
(416,80,o),
(327,80,cs),
(166,80,l)
);
},
{
closed = 1;
nodes = (
(166,660,l),
(324,660,ls),
(394,660,o),
(432,620,o),
(432,540,cs),
(432,459,o),
(390,419,o),
(325,419,cs),
(166,419,l)
);
},
{
closed = 1;
nodes = (
(327,-100,l),
(327,820,l),
(253,820,l),
(253,-100,l)
);
}
);
width = 620;
}
);
unicode = 3647;
}
{
color = 1;
glyphname = Germandbls;
layers = (
{
anchors = (
{
name = bottom;
pos = (310,0);
},
{
name = top;
pos = (310,740);
}
);
layerId = "574EE4B9-5C1A-4E7E-9985-C08FACB65BD8";
shapes = (
{
closed = 1;
nodes = (
(146,0,l),
(146,526,ls),
(146,628,o),
(188,672,o),
(278,672,cs),
(366,672,o),
(430,648,o),
(460,630,c),
(460,650,l),
(284,420,l),
(284,348,l),
(334,348,ls),
(428,348,o),
(480,296,o),
(480,208,cs),
(480,120,o),
(428,68,o),
(334,68,cs),
(290,68,o),
(250,74,o),
(226,80,c),
(226,0,l),
(250,-6,o),
(288,-12,o),
(334,-12,cs),
(482,-12,o),
(570,88,o),
(570,210,cs),
(570,332,o),
(482,420,o),
(342,420,c),
(344,390,l),
(520,608,l),
(520,688,l),
(468,720,o),
(382,752,o),
(278,752,cs),
(124,752,o),
(60,669,o),
(60,528,cs),
(60,0,l)
);
}
);
width = 620;
}
);
unicode = 7838;
}
{
color = 9;
glyphname = endash;
layers = (
{
layerId = "574EE4B9-5C1A-4E7E-9985-C08FACB65BD8";
shapes = (
{
closed = 1;
nodes = (
(580,253,l),
(580,331,l),
(40,331,l),
(40,253,l)
);
}
);
width = 620;
}
);
unicode = 8211;
}
{
color = 9;
glyphname = emdash;
layers = (
{
layerId = "574EE4B9-5C1A-4E7E-9985-C08FACB65BD8";
shapes = (
{
closed = 1;
nodes = (
(620,253,l),
(620,331,l),
(0,331,l),
(0,253,l)
);
}
);
width = 620;
}
);
unicode = 8212;
}
{
color = 1;
glyphname = dagger;
layers = (
{
layerId = "574EE4B9-5C1A-4E7E-9985-C08FACB65BD8";
shapes = (
{
closed = 1;
nodes = (
(350,60,l),
(350,740,l),
(270,740,l),
(270,60,l)
);
},
{
closed = 1;
nodes = (
(520,484,l),
(520,560,l),
(100,560,l),
(100,484,l)
);
}
);
width = 620;
}
);
unicode = 8224;
}
{
color = 1;
glyphname = daggerdbl;
layers = (
{
layerId = "574EE4B9-5C1A-4E7E-9985-C08FACB65BD8";
shapes = (
{
closed = 1;
nodes = (
(350,60,l),
(350,740,l),
(270,740,l),
(270,60,l)
);
},
{
closed = 1;
nodes = (
(500,232,l),
(500,308,l),
(120,308,l),
(120,232,l)
);
},
{
closed = 1;
nodes = (
(520,484,l),
(520,560,l),
(100,560,l),
(100,484,l)
);
}
);
width = 620;
}
);
unicode = 8225;
}
{
color = 1;
glyphname = bullet;
layers = (
{
layerId = "574EE4B9-5C1A-4E7E-9985-C08FACB65BD8";
shapes = (
{
closed = 1;
nodes = (
(393,162,o),
(460,229,o),
(460,312,cs),
(460,396,o),
(393,462,o),
(310,462,cs),
(227,462,o),
(160,396,o),
(160,312,cs),
(160,229,o),
(227,162,o),
(310,162,cs)
);
}
);
width = 620;
}
);
unicode = 8226;
}
{
color = 1;
glyphname = ellipsis;
layers = (
{
layerId = "574EE4B9-5C1A-4E7E-9985-C08FACB65BD8";
shapes = (
{
closed = 1;
nodes = (
(144,-12,o),
(172,18,o),
(172,62,cs),
(172,106,o),
(144,136,o),
(96,136,cs),
(48,136,o),
(20,106,o),
(20,62,cs),
(20,18,o),
(48,-12,o),
(96,-12,cs)
);
},
{
closed = 1;
nodes = (
(358,-12,o),
(386,18,o),
(386,62,cs),
(386,106,o),
(358,136,o),
(310,136,cs),
(262,136,o),
(234,106,o),
(234,62,cs),
(234,18,o),
(262,-12,o),
(310,-12,cs)
);
},
{
closed = 1;
nodes = (
(572,-12,o),
(600,18,o),
(600,62,cs),
(600,106,o),
(572,136,o),
(524,136,cs),
(476,136,o),
(448,106,o),
(448,62,cs),
(448,18,o),
(476,-12,o),
(524,-12,cs)
);
}
);
width = 620;
}
);
unicode = 8230;
}
{
color = 1;
glyphname = perthousand;
layers = (
{
layerId = "574EE4B9-5C1A-4E7E-9985-C08FACB65BD8";
shapes = (
{
closed = 1;
nodes = (
(232,408,o),
(294,460,o),
(294,580,cs),
(294,700,o),
(232,752,o),
(152,752,cs),
(72,752,o),
(10,700,o),
(10,580,cs),
(10,460,o),
(72,408,o),
(152,408,cs)
);
},
{
closed = 1;
nodes = (
(108,470,o),
(82,502,o),
(82,580,cs),
(82,658,o),
(108,690,o),
(152,690,cs),
(196,690,o),
(222,658,o),
(222,580,cs),
(222,502,o),
(196,470,o),
(152,470,cs)
);
},
{
closed = 1;
nodes = (
(86,160,l),
(610,700,l),
(534,700,l),
(10,160,l)
);
},
{
closed = 1;
nodes = (
(558,-12,o),
(610,40,o),
(610,160,cs),
(610,280,o),
(558,332,o),
(488,332,cs),
(418,332,o),
(380,280,o),
(380,160,cs),
(380,40,o),
(418,-12,o),
(488,-12,cs)
);
},
{
closed = 1;
nodes = (
(454,50,o),
(438,82,o),
(438,160,cs),
(438,238,o),
(454,270,o),
(488,270,cs),
(522,270,o),
(538,238,o),
(538,160,cs),
(538,82,o),
(522,50,o),
(488,50,cs)
);
},
{
closed = 1;
nodes = (
(399,-12,o),
(437,40,o),
(437,160,cs),
(437,280,o),
(399,332,o),
(329,332,cs),
(259,332,o),
(207,280,o),
(207,160,cs),
(207,40,o),
(259,-12,o),
(329,-12,cs)
);
},
{
closed = 1;
nodes = (
(295,50,o),
(279,82,o),
(279,160,cs),
(279,238,o),
(295,270,o),
(329,270,cs),
(363,270,o),
(379,238,o),
(379,160,cs),
(379,82,o),
(363,50,o),
(329,50,cs)
);
}
);
width = 620;
}
);
unicode = 8240;
}
{
color = 1;
glyphname = minute;
layers = (
{
layerId = "574EE4B9-5C1A-4E7E-9985-C08FACB65BD8";
shapes = (
{
closed = 1;
nodes = (
(316,472,l),
(380,740,l),
(292,740,l),
(240,472,l)
);
}
);
width = 620;
}
);
unicode = 8242;
}
{
color = 1;
glyphname = guilsinglright;
layers = (
{
layerId = "574EE4B9-5C1A-4E7E-9985-C08FACB65BD8";
shapes = (
{
closed = 1;
nodes = (
(468,276,l),
(280,476,l),
(180,476,l),
(370,276,l),
(180,76,l),
(280,76,l)
);
}
);
width = 620;
}
);
unicode = 8250;
}
{
color = 9;
glyphname = fraction;
layers = (
{
guides = (
{
angle = 55.742;
pos = (20,0);
}
);
layerId = "574EE4B9-5C1A-4E7E-9985-C08FACB65BD8";
shapes = (
{
closed = 1;
nodes = (
(424,482,l),
(600,740,l),
(524,740,l),
(348,482,l)
);
},
{
closed = 1;
nodes = (
(196,258,l),
(20,0,l),
(96,0,l),
(272,258,l)
);
}
);
width = 620;
}
);
unicode = 8260;
}
{
color = 9;
glyphname = zerosuperior;
layers = (
{
layerId = "574EE4B9-5C1A-4E7E-9985-C08FACB65BD8";
shapes = (
{
closed = 1;
nodes = (
(411,382,o),
(462,451,o),
(462,584,cs),
(462,716,o),
(411,786,o),
(310,786,cs),
(209,786,o),
(158,716,o),
(158,584,cs),
(158,451,o),
(209,382,o),
(310,382,cs)
);
},
{
closed = 1;
nodes = (
(256,442,o),
(226,474,o),
(226,584,cs),
(226,694,o),
(256,726,o),
(310,726,cs),
(364,726,o),
(394,694,o),
(394,584,cs),
(394,474,o),
(364,442,o),
(310,442,cs)
);
}
);
width = 620;
}
);
unicode = 8304;
}
{
color = 9;
glyphname = foursuperior;
layers = (
{
layerId = "574EE4B9-5C1A-4E7E-9985-C08FACB65BD8";
shapes = (
{
closed = 1;
nodes = (
(410,390,l),
(410,476,l),
(460,476,l),
(460,534,l),
(410,534,l),
(410,630,l),
(344,630,l),
(344,534,l),
(190,534,l),
(218,504,l),
(370,778,l),
(298,778,l),
(160,524,l),
(160,476,l),
(344,476,l),
(344,390,l)
);
}
);
width = 620;
}
);
unicode = 8308;
}
{
color = 9;
glyphname = fivesuperior;
layers = (
{
layerId = "574EE4B9-5C1A-4E7E-9985-C08FACB65BD8";
shapes = (
{
closed = 1;
nodes = (
(392,382,o),
(448,434,o),
(448,518,cs),
(448,600,o),
(396,652,o),
(320,652,cs),
(268,652,o),
(234,624,o),
(218,596,c),
(241,588,l),
(254,720,l),
(420,720,l),
(420,778,l),
(194,778,l),
(176,564,l),
(242,564,l),
(252,580,o),
(272,594,o),
(308,594,cs),
(357,594,o),
(380,564,o),
(380,518,cs),
(380,470,o),
(359,442,o),
(308,442,cs),
(260,442,o),
(242,458,o),
(238,490,c),
(172,490,l),
(176,422,o),
(224,382,o),
(308,382,cs)
);
}
);
width = 620;
}
);
unicode = 8309;
}
{
color = 9;
glyphname = sixsuperior;
layers = (
{
layerId = "574EE4B9-5C1A-4E7E-9985-C08FACB65BD8";
shapes = (
{
closed = 1;
nodes = (
(397,382,o),
(448,438,o),
(448,510,cs),
(448,582,o),
(397,636,o),
(324,636,cs),
(268,636,o),
(238,592,o),
(234,582,c),
(242,580,l),
(242,596,o),
(246,606,o),
(266,634,cs),
(370,778,l),
(298,778,l),
(216,658,ls),
(186,614,o),
(172,572,o),
(172,518,cs),
(172,434,o),
(228,382,o),
(310,382,cs)
);
},
{
closed = 1;
nodes = (
(270,442,o),
(240,464,o),
(240,510,cs),
(240,556,o),
(270,578,o),
(310,578,cs),
(350,578,o),
(380,556,o),
(380,510,cs),
(380,464,o),
(350,442,o),
(310,442,cs)
);
}
);
width = 620;
}
);
unicode = 8310;
}
{
color = 9;
glyphname = sevensuperior;
layers = (
{
layerId = "574EE4B9-5C1A-4E7E-9985-C08FACB65BD8";
shapes = (
{
closed = 1;
nodes = (
(298,390,l),
(446,726,l),
(446,778,l),
(174,778,l),
(174,720,l),
(420,720,l),
(390,756,l),
(228,390,l)
);
}
);
width = 620;
}
);
unicode = 8311;
}
{
color = 9;
glyphname = eightsuperior;
layers = (
{
layerId = "574EE4B9-5C1A-4E7E-9985-C08FACB65BD8";
shapes = (
{
closed = 1;
nodes = (
(400,382,o),
(456,418,o),
(456,496,cs),
(456,556,o),
(420,590,o),
(364,602,c),
(364,592,l),
(410,602,o),
(440,626,o),
(440,680,cs),
(440,742,o),
(398,786,o),
(310,786,cs),
(222,786,o),
(180,742,o),
(180,680,cs),
(180,626,o),
(210,602,o),
(256,592,c),
(256,602,l),
(200,590,o),
(164,556,o),
(164,496,cs),
(164,418,o),
(220,382,o),
(310,382,cs)
);
},
{
closed = 1;
nodes = (
(260,440,o),
(232,456,o),
(232,500,cs),
(232,544,o),
(256,568,o),
(310,568,cs),
(364,568,o),
(388,544,o),
(388,500,cs),
(388,456,o),
(360,440,o),
(310,440,cs)
);
},
{
closed = 1;
nodes = (
(264,622,o),
(248,640,o),
(248,676,cs),
(248,711,o),
(267,728,o),
(310,728,cs),
(353,728,o),
(372,711,o),
(372,676,cs),
(372,640,o),
(356,622,o),
(310,622,cs)
);
}
);
width = 620;
}
);
unicode = 8312;
}
{
color = 9;
glyphname = ninesuperior;
layers = (
{
layerId = "574EE4B9-5C1A-4E7E-9985-C08FACB65BD8";
shapes = (
{
closed = 1;
nodes = (
(322,390,l),
(404,510,ls),
(434,554,o),
(448,596,o),
(448,650,cs),
(448,734,o),
(392,786,o),
(310,786,cs),
(223,786,o),
(172,730,o),
(172,658,cs),
(172,586,o),
(223,532,o),
(296,532,cs),
(352,532,o),
(382,576,o),
(386,586,c),
(378,588,l),
(378,572,o),
(374,562,o),
(354,534,cs),
(250,390,l)
);
},
{
closed = 1;
nodes = (
(270,590,o),
(240,612,o),
(240,658,cs),
(240,704,o),
(270,726,o),
(310,726,cs),
(350,726,o),
(380,704,o),
(380,658,cs),
(380,612,o),
(350,590,o),
(310,590,cs)
);
}
);
width = 620;
}
);
unicode = 8313;
}
{
color = 1;
glyphname = sheqel;
layers = (
{
layerId = "574EE4B9-5C1A-4E7E-9985-C08FACB65BD8";
shapes = (
{
closed = 1;
nodes = (
(430,0,ls),
(522,0,o),
(580,58,o),
(580,150,cs),
(580,740,l),
(498,740,l),
(498,145,ls),
(498,106,o),
(474,82,o),
(437,82,cs),
(274,82,l),
(274,585,l),
(192,585,l),
(192,0,l)
);
},
{
closed = 1;
nodes = (
(122,0,l),
(122,658,l),
(285,658,ls),
(322,658,o),
(346,633,o),
(346,595,cs),
(346,155,l),
(428,155,l),
(428,590,ls),
(428,682,o),
(370,740,o),
(279,740,cs),
(40,740,l),
(40,0,l)
);
}
);
width = 620;
}
);
unicode = 8362;
}
{
color = 1;
glyphname = euro;
layers = (
{
layerId = "574EE4B9-5C1A-4E7E-9985-C08FACB65BD8";
shapes = (
{
closed = 1;
nodes = (
(480,410,l),
(480,488,l),
(40,488,l),
(40,410,l)
);
},
{
closed = 1;
nodes = (
(480,252,l),
(480,330,l),
(40,330,l),
(40,252,l)
);
},
{
closed = 1;
nodes = (
(220,590,o),
(310,668,o),
(440,668,cs),
(488,668,o),
(540,658,o),
(560,652,c),
(560,738,l),
(540,744,o),
(490,752,o),
(430,752,cs),
(246,752,o),
(130,629,o),
(130,370,cs),
(130,111,o),
(246,-12,o),
(430,-12,cs),
(490,-12,o),
(540,-4,o),
(560,2,c),
(560,88,l),
(540,82,o),
(488,72,o),
(440,72,cs),
(310,72,o),
(220,150,o),
(220,370,cs)
);
}
);
width = 620;
}
);
unicode = 8364;
}
{
color = 1;
glyphname = peso;
layers = (
{
layerId = "574EE4B9-5C1A-4E7E-9985-C08FACB65BD8";
shapes = (
{
closed = 1;
nodes = (
(196,0,l),
(196,244,l),
(296,244,ls),
(424,244,o),
(510,326,o),
(510,492,cs),
(510,658,o),
(424,740,o),
(296,740,cs),
(110,740,l),
(110,0,l)
);
},
{
closed = 1;
nodes = (
(196,660,l),
(286,660,ls),
(378,660,o),
(420,612,o),
(420,492,cs),
(420,372,o),
(378,324,o),
(286,324,cs),
(196,324,l)
);
},
{
closed = 1;
nodes = (
(580,522,l),
(580,592,l),
(40,592,l),
(40,522,l)
);
},
{
closed = 1;
nodes = (
(580,392,l),
(580,462,l),
(40,462,l),
(40,392,l)
);
}
);
width = 620;
}
);
unicode = 8369;
}
{
color = 1;
glyphname = hryvnia;
layers = (
{
layerId = "574EE4B9-5C1A-4E7E-9985-C08FACB65BD8";
shapes = (
{
closed = 1;
nodes = (
(590,389,l),
(590,463,l),
(30,463,l),
(30,389,l)
);
},
{
closed = 1;
nodes = (
(590,235,l),
(590,309,l),
(30,309,l),
(30,235,l)
);
},
{
closed = 1;
nodes = (
(500,444,l),
(518,470,o),
(526,504,o),
(526,542,cs),
(526,666,o),
(444,752,o),
(308,752,cs),
(166,752,o),
(90,674,o),
(84,558,c),
(174,558,l),
(180,630,o),
(218,670,o),
(308,670,cs),
(396,670,o),
(440,620,o),
(440,542,cs),
(440,495,o),
(426,466,o),
(400,444,c)
);
},
{
closed = 1;
nodes = (
(92,258,l),
(86,237,o),
(80,215,o),
(80,186,cs),
(80,72,o),
(166,-12,o),
(310,-12,cs),
(442,-12,o),
(528,56,o),
(540,184,c),
(450,184,l),
(438,102,o),
(396,70,o),
(308,70,cs),
(216,70,o),
(166,110,o),
(166,184,cs),
(166,217,o),
(172,238,o),
(184,258,c)
);
}
);
width = 620;
}
);
unicode = 8372;
}
{
color = 1;
glyphname = rupeeIndian;
layers = (
{
layerId = "574EE4B9-5C1A-4E7E-9985-C08FACB65BD8";
shapes = (
{
closed = 1;
nodes = (
(256,316,ls),
(384,316,o),
(480,396,o),
(480,528,cs),
(480,654,o),
(354,740,o),
(250,740,cs),
(150,740,l),
(196,660,l),
(246,660,ls),
(344,660,o),
(390,614,o),
(390,528,cs),
(390,442,o),
(344,396,o),
(246,396,cs),
(60,396,l),
(60,316,l)
);
},
{
closed = 1;
nodes = (
(452,0,l),
(155,326,l),
(60,316,l),
(340,0,l)
);
},
{
closed = 1;
nodes = (
(560,488,l),
(560,568,l),
(60,568,l),
(60,488,l)
);
},
{
closed = 1;
nodes = (
(560,660,l),
(560,740,l),
(60,740,l),
(60,660,l)
);
}
);
width = 620;
}
);
unicode = 8377;
}
{
color = 1;
glyphname = ruble;
layers = (
{
layerId = "574EE4B9-5C1A-4E7E-9985-C08FACB65BD8";
shapes = (
{
closed = 1;
nodes = (
(216,0,l),
(216,660,l),
(326,660,ls),
(438,660,o),
(490,613,o),
(490,523,cs),
(490,433,o),
(438,386,o),
(326,386,cs),
(40,386,l),
(40,306,l),
(336,306,ls),
(484,306,o),
(580,387,o),
(580,523,cs),
(580,659,o),
(484,740,o),
(336,740,cs),
(130,740,l),
(130,0,l)
);
},
{
closed = 1;
nodes = (
(400,120,l),
(400,200,l),
(40,200,l),
(40,120,l)
);
}
);
width = 620;
}
);
unicode = 8381;
}
{
color = 9;
glyphname = numero;
layers = (
{
layerId = "574EE4B9-5C1A-4E7E-9985-C08FACB65BD8";
shapes = (
{
closed = 1;
nodes = (
(590,234,l),
(590,308,l),
(366,308,l),
(366,234,l)
);
},
{
closed = 1;
nodes = (
(118,0,l),
(118,660,l),
(98,652,l),
(220,0,l),
(320,0,l),
(320,740,l),
(242,740,l),
(242,80,l),
(262,88,l),
(140,740,l),
(40,740,l),
(40,0,l)
);
},
{
closed = 1;
nodes = (
(548,388,o),
(600,440,o),
(600,570,cs),
(600,700,o),
(548,752,o),
(478,752,cs),
(408,752,o),
(356,700,o),
(356,570,cs),
(356,440,o),
(408,388,o),
(478,388,cs)
);
},
{
closed = 1;
nodes = (
(444,450,o),
(428,482,o),
(428,570,cs),
(428,658,o),
(444,690,o),
(478,690,cs),
(512,690,o),
(528,658,o),
(528,570,cs),
(528,482,o),
(512,450,o),
(478,450,cs)
);
}
);
width = 620;
}
);
unicode = 8470;
}
{
color = 1;
glyphname = published;
layers = (
{
layerId = "574EE4B9-5C1A-4E7E-9985-C08FACB65BD8";
shapes = (
{
closed = 1;
nodes = (
(462,205,o),
(582,328,o),
(582,479,cs),
(582,630,o),
(462,752,o),
(311,752,cs),
(159,752,o),
(38,630,o),
(38,479,cs),
(38,328,o),
(159,205,o),
(311,205,cs)
);
},
{
closed = 1;
nodes = (
(183,259,o),
(96,359,o),
(96,479,cs),
(96,599,o),
(183,698,o),
(311,698,cs),
(438,698,o),
(524,599,o),
(524,479,cs),
(524,359,o),
(438,259,o),
(311,259,cs)
);
},
{
closed = 1;
nodes = (
(286,324,l),
(286,454,l),
(336,454,ls),
(407,454,o),
(446,487,o),
(446,547,cs),
(446,607,o),
(407,642,o),
(336,642,cs),
(226,642,l),
(226,324,l)
);
},
{
closed = 1;
nodes = (
(286,592,l),
(336,592,ls),
(366,592,o),
(386,579,o),
(386,548,cs),
(386,516,o),
(366,504,o),
(336,504,cs),
(286,504,l)
);
}
);
width = 620;
}
);
unicode = 8471;
}
{
color = 1;
glyphname = trademark;
layers = (
{
layerId = "574EE4B9-5C1A-4E7E-9985-C08FACB65BD8";
shapes = (
{
closed = 1;
nodes = (
(370,390,l),
(370,688,l),
(362,688,l),
(426,428,l),
(470,428,l),
(534,688,l),
(526,688,l),
(526,390,l),
(580,390,l),
(580,740,l),
(502,740,l),
(440,474,l),
(456,474,l),
(394,740,l),
(316,740,l),
(316,390,l)
);
},
{
closed = 1;
nodes = (
(188,390,l),
(188,688,l),
(278,688,l),
(278,740,l),
(40,740,l),
(40,688,l),
(130,688,l),
(130,390,l)
);
}
);
width = 620;
}
);
unicode = 8482;
}
{
color = 9;
glyphname = upArrow;
layers = (
{
layerId = "574EE4B9-5C1A-4E7E-9985-C08FACB65BD8";
shapes = (
{
closed = 1;
nodes = (
(581,423,l),
(310,694,l),
(39,424,l),
(39,318,l),
(309,588,l),
(581,317,l)
);
},
{
closed = 1;
nodes = (
(349,18,l),
(349,644,l),
(271,644,l),
(271,18,l)
);
}
);
width = 620;
}
);
unicode = 8593;
}
{
color = 9;
glyphname = rightArrow;
layers = (
{
layerId = "574EE4B9-5C1A-4E7E-9985-C08FACB65BD8";
shapes = (
{
closed = 1;
nodes = (
(338,95,l),
(598,355,l),
(338,616,l),
(232,616,l),
(492,355,l),
(231,94,l)
);
},
{
closed = 1;
nodes = (
(547,316,l),
(547,394,l),
(22,394,l),
(22,316,l)
);
}
);
width = 620;
}
);
unicode = 8594;
}
{
color = 9;
glyphname = leftRightArrow;
layers = (
{
layerId = "574EE4B9-5C1A-4E7E-9985-C08FACB65BD8";
shapes = (
{
closed = 1;
nodes = (
(256,188,l),
(132,318,l),
(488,318,l),
(364,188,l),
(460,188,l),
(610,356,l),
(460,524,l),
(364,524,l),
(488,394,l),
(132,394,l),
(256,524,l),
(160,524,l),
(10,356,l),
(160,188,l)
);
}
);
width = 620;
}
);
unicode = 8596;
}
{
color = 9;
glyphname = upDownArrow;
layers = (
{
layerId = "574EE4B9-5C1A-4E7E-9985-C08FACB65BD8";
shapes = (
{
closed = 1;
nodes = (
(478,126,l),
(478,222,l),
(348,98,l),
(348,614,l),
(478,490,l),
(478,586,l),
(310,736,l),
(142,586,l),
(142,490,l),
(272,614,l),
(272,98,l),
(142,222,l),
(142,126,l),
(310,-24,l)
);
}
);
width = 620;
}
);
unicode = 8597;
}
{
color = 9;
glyphname = rightWaveArrow;
layers = (
{
layerId = "574EE4B9-5C1A-4E7E-9985-C08FACB65BD8";
shapes = (
{
closed = 1;
nodes = (
(416,170,o),
(466,211,o),
(506,280,c),
(446,318,l),
(418,266,o),
(389,244,o),
(362,244,cs),
(328,244,o),
(312,264,o),
(304,334,cs),
(296,408,o),
(254,458,o),
(176,458,cs),
(96,458,o),
(44,394,o),
(30,310,c),
(108,310,l),
(119,359,o),
(142,384,o),
(176,384,cs),
(216,384,o),
(233,358,o),
(242,284,cs),
(252,202,o),
(296,170,o),
(358,170,cs)
);
},
{
closed = 1;
nodes = (
(568,461,l),
(354,362,l),
(590,224,l)
);
}
);
width = 620;
}
);
unicode = 8605;
}
{
color = 9;
glyphname = rightHookArrow;
layers = (
{
layerId = "574EE4B9-5C1A-4E7E-9985-C08FACB65BD8";
shapes = (
{
closed = 1;
nodes = (
(542,246,l),
(542,324,l),
(246,324,ls),
(167,324,o),
(105,382,o),
(105,455,cs),
(105,529,o),
(167,587,o),
(246,587,cs),
(542,587,l),
(542,665,l),
(246,665,ls),
(123,665,o),
(26,573,o),
(26,455,cs),
(26,337,o),
(123,246,o),
(246,246,cs)
);
},
{
closed = 1;
nodes = (
(427,118,l),
(594,285,l),
(429,451,l),
(329,451,l),
(501,286,l),
(327,118,l)
);
}
);
width = 620;
}
);
unicode = 8618;
}
{
color = 9;
glyphname = upTipLeftArrow;
layers = (
{
layerId = "574EE4B9-5C1A-4E7E-9985-C08FACB65BD8";
shapes = (
{
closed = 1;
nodes = (
(586,0,l),
(586,484,l),
(105,484,l),
(105,406,l),
(508,406,l),
(508,0,l)
);
},
{
closed = 1;
nodes = (
(227,606,l),
(34,445,l),
(228,284,l)
);
}
);
width = 620;
}
);
unicode = 8624;
}
{
color = 9;
glyphname = rightCornerDownArrow;
layers = (
{
layerId = "574EE4B9-5C1A-4E7E-9985-C08FACB65BD8";
shapes = (
{
closed = 1;
nodes = (
(478,71,l),
(478,709,l),
(22,709,l),
(22,631,l),
(399,631,l),
(399,71,l)
);
},
{
closed = 1;
nodes = (
(599,193,l),
(278,194,l),
(438,0,l)
);
}
);
width = 620;
}
);
unicode = 8628;
}
{
color = 9;
glyphname = leftTabArrow;
layers = (
{
layerId = "574EE4B9-5C1A-4E7E-9985-C08FACB65BD8";
shapes = (
{
closed = 1;
nodes = (
(327,475,l),
(134,314,l),
(328,153,l)
);
},
{
closed = 1;
nodes = (
(108,119,l),
(108,509,l),
(30,509,l),
(30,119,l)
);
},
{
closed = 1;
nodes = (
(590,275,l),
(590,353,l),
(204,353,l),
(204,275,l)
);
}
);
width = 620;
}
);
unicode = 8676;
}
{
color = 9;
glyphname = upWhiteArrow;
layers = (
{
layerId = "574EE4B9-5C1A-4E7E-9985-C08FACB65BD8";
shapes = (
{
closed = 1;
nodes = (
(470,0,l),
(470,396,l),
(604,396,l),
(311,709,l),
(16,396,l),
(152,396,l),
(152,0,l)
);
},
{
closed = 1;
nodes = (
(226,455,l),
(130,455,l),
(138,429,l),
(336,634,l),
(286,634,l),
(483,429,l),
(492,455,l),
(396,455,l),
(396,68,l),
(226,68,l)
);
}
);
width = 620;
}
);
unicode = 8679;
}
{
color = 1;
glyphname = partialdiff;
layers = (
{
layerId = "574EE4B9-5C1A-4E7E-9985-C08FACB65BD8";
shapes = (
{
closed = 1;
nodes = (
(457,-12,o),
(546,119,o),
(546,350,cs),
(546,563,o),
(435,752,o),
(199,778,c),
(179,704,l),
(353,688,o),
(458,563,o),
(458,350,cs),
(458,161,o),
(408,68,o),
(301,68,cs),
(213,68,o),
(162,121,o),
(162,241,cs),
(162,351,o),
(213,414,o),
(304,414,cs),
(384,414,o),
(451,371,o),
(480,312,c),
(516,384,l),
(464,452,o),
(390,494,o),
(304,494,cs),
(165,494,o),
(74,396,o),
(74,241,cs),
(74,79,o),
(165,-12,o),
(301,-12,cs)
);
}
);
width = 620;
}
);
unicode = 8706;
}
{
color = 1;
glyphname = increment;
layers = (
{
layerId = "574EE4B9-5C1A-4E7E-9985-C08FACB65BD8";
shapes = (
{
closed = 1;
nodes = (
(600,0,l),
(600,80,l),
(364,740,l),
(256,740,l),
(20,80,l),
(20,0,l)
);
},
{
closed = 1;
nodes = (
(310,672,l),
(526,78,l),
(94,78,l)
);
}
);
width = 620;
}
);
unicode = 8710;
}
{
color = 1;
glyphname = product;
layers = (
{
layerId = "574EE4B9-5C1A-4E7E-9985-C08FACB65BD8";
shapes = (
{
closed = 1;
nodes = (
(217,-120,l),
(217,662,l),
(407,662,l),
(407,-120,l),
(485,-120,l),
(485,662,l),
(590,662,l),
(590,740,l),
(30,740,l),
(30,662,l),
(139,662,l),
(139,-120,l)
);
}
);
width = 620;
}
);
unicode = 8719;
}
{
color = 1;
glyphname = summation;
layers = (
{
layerId = "574EE4B9-5C1A-4E7E-9985-C08FACB65BD8";
shapes = (
{
closed = 1;
nodes = (
(540,0,l),
(540,80,l),
(176,80,l),
(358,370,l),
(176,660,l),
(540,660,l),
(540,740,l),
(80,740,l),
(80,664,l),
(268,370,l),
(80,76,l),
(80,0,l)
);
}
);
width = 620;
}
);
unicode = 8721;
}
{
color = 1;
glyphname = minus;
layers = (
{
layerId = "574EE4B9-5C1A-4E7E-9985-C08FACB65BD8";
shapes = (
{
closed = 1;
nodes = (
(530,263,l),
(530,341,l),
(90,341,l),
(90,263,l)
);
}
);
width = 620;
}
);
unicode = 8722;
}
{
color = 1;
glyphname = radical;
layers = (
{
layerId = "574EE4B9-5C1A-4E7E-9985-C08FACB65BD8";
shapes = (
{
closed = 1;
nodes = (
(238,-130,l),
(394,740,l),
(313,740,l),
(164,-130,l)
);
},
{
closed = 1;
nodes = (
(212,-130,l),
(101,380,l),
(20,380,l),
(138,-130,l)
);
},
{
closed = 1;
nodes = (
(600,666,l),
(600,740,l),
(314,740,l),
(314,666,l)
);
}
);
width = 620;
}
);
unicode = 8730;
}
{
color = 1;
glyphname = infinity;
layers = (
{
layerId = "574EE4B9-5C1A-4E7E-9985-C08FACB65BD8";
shapes = (
{
closed = 1;
nodes = (
(216,155,o),
(274,194,o),
(310,256,c),
(346,192,o),
(404,155,o),
(467,155,cs),
(546,155,o),
(602,221,o),
(602,311,cs),
(602,401,o),
(546,466,o),
(467,466,cs),
(404,466,o),
(346,430,o),
(310,366,c),
(274,428,o),
(216,467,o),
(155,467,cs),
(74,467,o),
(18,405,o),
(18,311,cs),
(18,217,o),
(74,155,o),
(155,155,cs)
);
},
{
closed = 1;
nodes = (
(118,231,o),
(94,264,o),
(94,311,cs),
(94,358,o),
(118,391,o),
(161,391,cs),
(201,391,o),
(248,357,o),
(274,311,c),
(248,264,o),
(201,231,o),
(161,231,cs)
);
},
{
closed = 1;
nodes = (
(421,230,o),
(373,263,o),
(345,311,c),
(375,359,o),
(422,391,o),
(461,390,cs),
(503,389,o),
(526,356,o),
(526,311,cs),
(526,265,o),
(503,232,o),
(461,231,cs)
);
}
);
width = 620;
}
);
unicode = 8734;
}
{
color = 1;
glyphname = integral;
layers = (
{
layerId = "574EE4B9-5C1A-4E7E-9985-C08FACB65BD8";
shapes = (
{
closed = 1;
nodes = (
(264,-138,o),
(309,-93,o),
(318,-4,cs),
(384,622,ls),
(388,658,o),
(408,678,o),
(445,678,cs),
(500,678,l),
(500,752,l),
(450,752,ls),
(360,752,o),
(311,707,o),
(302,618,cs),
(237,-8,ls),
(232,-52,o),
(211,-64,o),
(175,-64,cs),
(120,-64,l),
(120,-138,l),
(170,-138,ls)
);
}
);
width = 620;
}
);
unicode = 8747;
}
{
color = 1;
glyphname = notequal;
layers = (
{
layerId = "574EE4B9-5C1A-4E7E-9985-C08FACB65BD8";
shapes = (
{
closed = 1;
nodes = (
(270,37,l),
(424,561,l),
(350,561,l),
(196,37,l)
);
},
{
alignment = -1;
ref = equal;
}
);
width = 620;
}
);
unicode = 8800;
}
{
color = 1;
glyphname = greaterequal;
layers = (
{
layerId = "574EE4B9-5C1A-4E7E-9985-C08FACB65BD8";
shapes = (
{
closed = 1;
nodes = (
(540,60,l),
(540,134,l),
(80,134,l),
(80,60,l)
);
},
{
closed = 1;
nodes = (
(540,342,l),
(540,448,l),
(80,618,l),
(80,536,l),
(486,390,l),
(486,400,l),
(80,254,l),
(80,172,l)
);
}
);
width = 620;
}
);
unicode = 8805;
}
{
color = 9;
glyphname = zero.blackCircled;
layers = (
{
layerId = "574EE4B9-5C1A-4E7E-9985-C08FACB65BD8";
shapes = (
{
ref = blackCircled;
},
{
closed = 1;
nodes = (
(209,168,o),
(158,237,o),
(158,370,cs),
(158,502,o),
(209,572,o),
(310,572,cs),
(411,572,o),
(462,502,o),
(462,370,cs),
(462,237,o),
(411,168,o),
(310,168,cs)
);
},
{
closed = 1;
nodes = (
(364,228,o),
(394,260,o),
(394,370,cs),
(394,480,o),
(364,512,o),
(310,512,cs),
(256,512,o),
(226,480,o),
(226,370,cs),
(226,260,o),
(256,228,o),
(310,228,cs)
);
}
);
width = 620;
}
);
unicode = 9471;
}
{
glyphname = lozenge;
layers = (
{
layerId = "574EE4B9-5C1A-4E7E-9985-C08FACB65BD8";
shapes = (
{
closed = 1;
nodes = (
(360,-17,l),
(361,-17,l),
(360,-16,l),
(548,336,l),
(360,689,l),
(361,691,l),
(261,691,l),
(260,690,l),
(259,690,l),
(260,689,l),
(72,337,l),
(260,-16,l),
(259,-18,l),
(359,-18,l)
);
},
{
closed = 1;
nodes = (
(310,597,l),
(450,336,l),
(310,76,l),
(170,337,l)
);
}
);
width = 620;
}
);
unicode = 9674;
}
{
color = 9;
glyphname = one.blackCircled;
layers = (
{
layerId = "574EE4B9-5C1A-4E7E-9985-C08FACB65BD8";
shapes = (
{
ref = blackCircled;
},
{
closed = 1;
nodes = (
(314,490,l),
(180,410,l),
(180,478,l),
(322,564,l),
(380,564,l),
(380,176,l),
(314,176,l)
);
}
);
userData = {
assembly = "NPUSHB[ ]	/* 47 values pushed */
21 20 17 3 3 2 1 76 0 0 0 2 3 0 2 103 0 3 1 1 3 87 0 3 3 1 97 4 1 1 3 1 81 0 0 27 26 25 24 0 15 0 14 38 5 6 23 
CALL[ ]	/* CallFunction */";
};
width = 620;
}
);
note = uni2776;
unicode = 10102;
}
{
color = 9;
glyphname = two.blackCircled;
layers = (
{
layerId = "574EE4B9-5C1A-4E7E-9985-C08FACB65BD8";
shapes = (
{
ref = blackCircled;
},
{
closed = 1;
nodes = (
(186,222,l),
(306,330,ls),
(360,379,o),
(378,404,o),
(378,446,cs),
(378,489,o),
(356,510,o),
(314,510,cs),
(264,510,o),
(242,486,o),
(242,438,c),
(176,438,l),
(176,520,o),
(224,568,o),
(314,568,cs),
(404,568,o),
(446,519,o),
(446,446,cs),
(446,380,o),
(414,349,o),
(350,292,cs),
(281,230,l),
(448,230,l),
(448,172,l),
(186,172,l)
);
}
);
userData = {
assembly = "NPUSHB[ ]	/* 67 values pushed */
0 3 2 5 2 3 5 128 0 0 0 4 2 0 4 105 0 2 0 5 6 2 5 103 8 1 6 1 1 6 87 8 1 6 6 1 97 7 1 1 6 1 81 16 16 0 0 16 43 16 43 42 41 33 31 29 28 26 24 0 15 0 14 38 9 6 23 
CALL[ ]	/* CallFunction */";
};
width = 620;
}
);
note = uni2777;
unicode = 10103;
}
{
color = 9;
glyphname = three.blackCircled;
layers = (
{
layerId = "574EE4B9-5C1A-4E7E-9985-C08FACB65BD8";
shapes = (
{
ref = blackCircled;
},
{
closed = 1;
nodes = (
(213,168,o),
(169,211,o),
(166,288,c),
(232,288,l),
(236,244,o),
(260,228,o),
(306,228,cs),
(358,228,o),
(386,242,o),
(386,290,cs),
(386,335,o),
(361,350,o),
(314,350,cs),
(278,350,l),
(278,408,l),
(314,408,ls),
(351,408,o),
(376,420,o),
(376,458,cs),
(376,492,o),
(356,512,o),
(308,512,cs),
(258,512,o),
(238,492,o),
(236,462,c),
(170,462,l),
(178,532,o),
(218,572,o),
(308,572,cs),
(398,572,o),
(444,533,o),
(444,466,cs),
(444,424,o),
(424,394,o),
(380,380,c),
(428,367,o),
(454,334,o),
(454,286,cs),
(454,208,o),
(403,168,o),
(306,168,cs)
);
}
);
userData = {
assembly = "NPUSHB[ ]	/* 87 values pushed */
48 1 4 5 1 76 0 0 0 8 6 0 8 105 0 6 0 5 4 6 5 105 0 7 0 2 3 7 2 103 0 4 0 3 9 4 3 105 11 1 9 1 1 9 89 11 1 9 9 1 97 10 1 1 9 1 81 16 16 0 0 16 54 16 53 43 41 39 38 37 35 31 29 28 26 23 21 19 18 0 15 0 14 38 12 6 23 
CALL[ ]	/* CallFunction */";
};
width = 620;
}
);
note = uni2778;
unicode = 10104;
}
{
color = 9;
glyphname = four.blackCircled;
layers = (
{
layerId = "574EE4B9-5C1A-4E7E-9985-C08FACB65BD8";
shapes = (
{
ref = blackCircled;
},
{
closed = 1;
nodes = (
(342,262,l),
(158,262,l),
(158,310,l),
(296,564,l),
(368,564,l),
(233,320,l),
(342,320,l),
(342,416,l),
(408,416,l),
(408,320,l),
(458,320,l),
(458,262,l),
(408,262,l),
(408,176,l),
(342,176,l)
);
}
);
userData = {
assembly = "PUSHB[ ]	/* 7 values pushed */
28 20 2 5 4 1 76 
MPPEM[ ]	/* MeasurePixelPerEm */
PUSHB[ ]	/* 1 value pushed */
19 
LT[ ]	/* LessThan */
IF[ ]	/* If */
NPUSHB[ ]	/* 42 values pushed */
9 7 2 5 4 3 4 5 3 128 6 1 3 2 2 3 112 0 0 0 4 5 0 4 103 0 2 1 1 2 87 0 2 2 1 98 8 1 1 2 1 82 
ELSE[ ]	/* Else */
NPUSHB[ ]	/* 43 values pushed */
9 7 2 5 4 3 4 5 3 128 6 1 3 2 4 3 2 126 0 0 0 4 5 0 4 103 0 2 1 1 2 87 0 2 2 1 98 8 1 1 2 1 82 
EIF[ ]	/* EndIf */
NPUSHB[ ]	/* 26 values pushed */
27 27 0 0 27 35 27 34 26 25 24 23 22 21 19 18 17 16 0 15 0 14 38 10 6 23 
CALL[ ]	/* CallFunction */";
};
width = 620;
}
);
note = uni2779;
unicode = 10105;
}
{
color = 9;
glyphname = five.blackCircled;
layers = (
{
layerId = "574EE4B9-5C1A-4E7E-9985-C08FACB65BD8";
shapes = (
{
ref = blackCircled;
},
{
closed = 1;
nodes = (
(224,172,o),
(176,212,o),
(172,280,c),
(238,280,l),
(242,248,o),
(260,232,o),
(308,232,cs),
(359,232,o),
(380,260,o),
(380,308,cs),
(380,354,o),
(357,384,o),
(308,384,cs),
(272,384,o),
(252,370,o),
(242,354,c),
(176,354,l),
(194,568,l),
(420,568,l),
(420,510,l),
(254,510,l),
(245,417,l),
(263,432,o),
(288,442,o),
(320,442,cs),
(396,442,o),
(448,390,o),
(448,308,cs),
(448,224,o),
(392,172,o),
(308,172,cs)
);
}
);
userData = {
assembly = "NPUSHB[ ]	/* 87 values pushed */
39 1 4 8 1 76 0 0 0 6 7 0 6 103 0 7 0 8 4 7 8 105 0 5 0 2 3 5 2 103 0 4 0 3 9 4 3 105 11 1 9 1 1 9 89 11 1 9 9 1 97 10 1 1 9 1 81 16 16 0 0 16 47 16 46 42 40 36 35 34 33 32 31 29 27 23 21 19 18 0 15 0 14 38 12 6 23 
CALL[ ]	/* CallFunction */";
};
width = 620;
}
);
note = uni277A;
unicode = 10106;
}
{
color = 9;
glyphname = six.blackCircled;
layers = (
{
layerId = "574EE4B9-5C1A-4E7E-9985-C08FACB65BD8";
shapes = (
{
ref = blackCircled;
},
{
closed = 1;
nodes = (
(228,172,o),
(172,224,o),
(172,308,cs),
(172,362,o),
(186,404,o),
(216,448,cs),
(298,568,l),
(370,568,l),
(266,424,ls),
(254,408,o),
(248,397,o),
(245,388,c),
(259,405,o),
(285,426,o),
(324,426,cs),
(397,426,o),
(448,372,o),
(448,300,cs),
(448,228,o),
(397,172,o),
(310,172,cs)
);
},
{
closed = 1;
nodes = (
(350,232,o),
(380,254,o),
(380,300,cs),
(380,346,o),
(350,368,o),
(310,368,cs),
(270,368,o),
(240,346,o),
(240,300,cs),
(240,254,o),
(270,232,o),
(310,232,cs)
);
}
);
userData = {
assembly = "PUSHB[ ]	/* 6 values pushed */
32 1 7 5 1 76 
MPPEM[ ]	/* MeasurePixelPerEm */
PUSHB[ ]	/* 1 value pushed */
32 
LT[ ]	/* LessThan */
IF[ ]	/* If */
NPUSHB[ ]	/* 51 values pushed */
0 4 2 3 3 4 114 0 0 0 2 4 0 2 105 0 3 0 5 7 3 5 106 0 7 11 1 8 6 7 8 105 10 1 6 1 1 6 89 10 1 6 6 1 97 9 1 1 6 1 81 
ELSE[ ]	/* Else */
NPUSHB[ ]	/* 52 values pushed */
0 4 2 3 2 4 3 128 0 0 0 2 4 0 2 105 0 3 0 5 7 3 5 106 0 7 11 1 8 6 7 8 105 10 1 6 1 1 6 89 10 1 6 6 1 97 9 1 1 6 1 81 
EIF[ ]	/* EndIf */
NPUSHB[ ]	/* 32 values pushed */
41 41 16 16 0 0 41 52 41 51 47 45 16 40 16 39 35 33 29 27 25 24 22 20 0 15 0 14 38 12 6 23 
CALL[ ]	/* CallFunction */";
};
width = 620;
}
);
note = uni277B;
unicode = 10107;
}
{
color = 9;
glyphname = seven.blackCircled;
layers = (
{
layerId = "574EE4B9-5C1A-4E7E-9985-C08FACB65BD8";
shapes = (
{
ref = blackCircled;
},
{
closed = 1;
nodes = (
(370,506,l),
(170,506,l),
(170,564,l),
(442,564,l),
(442,512,l),
(294,176,l),
(224,176,l)
);
}
);
userData = {
assembly = "NPUSHB[ ]	/* 61 values pushed */
24 1 2 3 1 76 0 2 3 4 3 2 4 128 0 0 0 3 2 0 3 103 6 1 4 1 1 4 87 6 1 4 4 1 97 5 1 1 4 1 81 16 16 0 0 16 27 16 27 23 22 21 19 0 15 0 14 38 7 6 23 
CALL[ ]	/* CallFunction */";
};
width = 620;
}
);
note = uni277C;
unicode = 10108;
}
{
color = 9;
glyphname = eight.blackCircled;
layers = (
{
layerId = "574EE4B9-5C1A-4E7E-9985-C08FACB65BD8";
shapes = (
{
ref = blackCircled;
},
{
closed = 1;
nodes = (
(220,168,o),
(164,204,o),
(164,282,cs),
(164,335,o),
(192,368,o),
(238,383,c),
(202,395,o),
(180,420,o),
(180,466,cs),
(180,528,o),
(222,572,o),
(310,572,cs),
(398,572,o),
(440,528,o),
(440,466,cs),
(440,420,o),
(418,395,o),
(382,383,c),
(428,368,o),
(456,335,o),
(456,282,cs),
(456,204,o),
(400,168,o),
(310,168,cs)
);
},
{
closed = 1;
nodes = (
(360,226,o),
(388,242,o),
(388,286,cs),
(388,330,o),
(364,354,o),
(310,354,cs),
(256,354,o),
(232,330,o),
(232,286,cs),
(232,242,o),
(260,226,o),
(310,226,cs)
);
},
{
closed = 1;
nodes = (
(356,408,o),
(372,426,o),
(372,462,cs),
(372,497,o),
(353,514,o),
(310,514,cs),
(267,514,o),
(248,497,o),
(248,462,cs),
(248,426,o),
(264,408,o),
(310,408,cs)
);
}
);
userData = {
assembly = "NPUSHB[ ]	/* 86 values pushed */
33 21 2 6 5 1 76 0 0 0 2 4 0 2 105 0 4 10 1 5 6 4 5 105 0 6 11 1 7 3 6 7 105 9 1 3 1 1 3 89 9 1 3 3 1 97 8 1 1 3 1 81 52 52 40 40 16 16 0 0 52 63 52 62 58 56 40 51 40 50 46 44 16 39 16 38 28 26 0 15 0 14 38 12 6 23 
CALL[ ]	/* CallFunction */";
};
width = 620;
}
);
note = uni277D;
unicode = 10109;
}
{
color = 9;
glyphname = nine.blackCircled;
layers = (
{
layerId = "574EE4B9-5C1A-4E7E-9985-C08FACB65BD8";
shapes = (
{
ref = blackCircled;
},
{
closed = 1;
nodes = (
(392,568,o),
(448,516,o),
(448,432,cs),
(448,378,o),
(434,336,o),
(404,292,cs),
(322,172,l),
(250,172,l),
(354,316,ls),
(366,332,o),
(372,343,o),
(375,352,c),
(361,335,o),
(335,314,o),
(296,314,cs),
(223,314,o),
(172,368,o),
(172,440,cs),
(172,512,o),
(223,568,o),
(310,568,cs)
);
},
{
closed = 1;
nodes = (
(270,508,o),
(240,486,o),
(240,440,cs),
(240,394,o),
(270,372,o),
(310,372,cs),
(350,372,o),
(380,394,o),
(380,440,cs),
(380,486,o),
(350,508,o),
(310,508,cs)
);
}
);
userData = {
assembly = "PUSHB[ ]	/* 6 values pushed */
26 1 4 8 1 76 
MPPEM[ ]	/* MeasurePixelPerEm */
PUSHB[ ]	/* 1 value pushed */
32 
LT[ ]	/* LessThan */
IF[ ]	/* If */
NPUSHB[ ]	/* 51 values pushed */
0 3 2 6 2 3 114 0 0 0 5 7 0 5 105 0 7 11 1 8 4 7 8 105 0 4 0 2 3 4 2 103 10 1 6 1 1 6 89 10 1 6 6 1 97 9 1 1 6 1 81 
ELSE[ ]	/* Else */
NPUSHB[ ]	/* 52 values pushed */
0 3 2 6 2 3 6 128 0 0 0 5 7 0 5 105 0 7 11 1 8 4 7 8 105 0 4 0 2 3 4 2 103 10 1 6 1 1 6 89 10 1 6 6 1 97 9 1 1 6 1 81 
EIF[ ]	/* EndIf */
NPUSHB[ ]	/* 32 values pushed */
41 41 16 16 0 0 41 52 41 51 47 45 16 40 16 39 35 33 29 27 23 21 19 18 0 15 0 14 38 12 6 23 
CALL[ ]	/* CallFunction */";
};
width = 620;
}
);
note = uni277E;
unicode = 10110;
}
{
color = 1;
glyphname = dittomark;
layers = (
{
layerId = "574EE4B9-5C1A-4E7E-9985-C08FACB65BD8";
shapes = (
{
closed = 1;
nodes = (
(380,270,l),
(470,520,l),
(376,520,l),
(312,270,l)
);
},
{
closed = 1;
nodes = (
(218,270,l),
(308,520,l),
(214,520,l),
(150,270,l)
);
}
);
width = 620;
}
);
unicode = 12291;
}
{
color = 1;
glyphname = wavedash;
layers = (
{
layerId = "574EE4B9-5C1A-4E7E-9985-C08FACB65BD8";
shapes = (
{
closed = 1;
nodes = (
(486,224,o),
(545,262,o),
(580,323,c),
(530,377,l),
(497,329,o),
(468,300,o),
(428,300,cs),
(392,300,o),
(356,315,o),
(310,344,cs),
(268,370,o),
(232,382,o),
(192,382,cs),
(134,382,o),
(76,345,o),
(40,284,c),
(90,230,l),
(123,279,o),
(152,306,o),
(192,306,cs),
(228,306,o),
(264,292,o),
(310,263,cs),
(352,237,o),
(388,224,o),
(428,224,cs)
);
}
);
width = 620;
}
);
unicode = 12316;
}
{
color = 1;
glyphname = Saltillo;
layers = (
{
layerId = "574EE4B9-5C1A-4E7E-9985-C08FACB65BD8";
shapes = (
{
closed = 1;
nodes = (
(344,380,l),
(354,600,l),
(354,740,l),
(266,740,l),
(266,600,l),
(276,380,l)
);
}
);
width = 620;
}
);
unicode = 42891;
}
{
glyphname = apple;
layers = (
{
layerId = "574EE4B9-5C1A-4E7E-9985-C08FACB65BD8";
shapes = (
{
attr = {
fillColor = (129,173,236,255);
};
closed = 1;
nodes = (
(604,227,l),
(604,588,l),
(107,588,l),
(107,497,l),
(377,497,l),
(377,227,l)
);
},
{
attr = {
fillColor = (129,173,236,255);
};
closed = 1;
nodes = (
(377,0,l),
(377,227,l),
(107,227,l),
(107,497,l),
(16,497,l),
(16,0,l)
);
}
);
width = 620;
}
);
unicode = 63743;
}
{
glyphname = fi;
layers = (
{
anchors = (
{
name = caret_1;
pos = (310,0);
}
);
background = {
shapes = (
{
ref = n;
}
);
};
layerId = "574EE4B9-5C1A-4E7E-9985-C08FACB65BD8";
shapes = (
{
closed = 1;
nodes = (
(177,0,l),
(177,614,ls),
(177,684,o),
(209,718,o),
(285,718,cs),
(319,718,o),
(363,713,o),
(381,708,c),
(381,780,l),
(364,785,o),
(311,790,o),
(279,790,cs),
(149,790,o),
(93,720,o),
(93,616,cs),
(93,0,l)
);
},
{
closed = 1;
nodes = (
(488,458,l),
(447,497,l),
(447,0,l),
(531,0,l),
(531,530,l),
(0,530,l),
(0,458,l)
);
},
{
closed = 1;
nodes = (
(529,629,o),
(555,653,o),
(555,695,cs),
(555,737,o),
(529,761,o),
(489,761,cs),
(449,761,o),
(423,737,o),
(423,695,cs),
(423,653,o),
(449,629,o),
(489,629,cs)
);
}
);
width = 620;
}
);
unicode = 64257;
}
{
glyphname = fl;
layers = (
{
anchors = (
{
name = caret_1;
pos = (310,0);
}
);
layerId = "574EE4B9-5C1A-4E7E-9985-C08FACB65BD8";
shapes = (
{
closed = 1;
nodes = (
(177,0,l),
(177,614,ls),
(177,684,o),
(209,718,o),
(285,718,cs),
(319,718,o),
(363,713,o),
(381,708,c),
(381,780,l),
(364,785,o),
(311,790,o),
(279,790,cs),
(149,790,o),
(93,720,o),
(93,616,cs),
(93,0,l)
);
},
{
closed = 1;
nodes = (
(447,778,l),
(447,0,l),
(531,0,l),
(531,778,l)
);
},
{
closed = 1;
nodes = (
(359,530,l),
(0,530,l),
(0,458,l),
(359,458,l)
);
}
);
width = 620;
}
);
unicode = 64258;
}
{
glyphname = .notdef;
layers = (
{
layerId = "574EE4B9-5C1A-4E7E-9985-C08FACB65BD8";
shapes = (
{
closed = 1;
nodes = (
(560,0,l),
(560,740,l),
(60,740,l),
(60,0,l)
);
},
{
closed = 1;
nodes = (
(310,300,l),
(441,80,l),
(179,80,l)
);
},
{
closed = 1;
nodes = (
(140,584,l),
(268,370,l),
(140,156,l)
);
},
{
closed = 1;
nodes = (
(352,370,l),
(480,584,l),
(480,155,l)
);
},
{
closed = 1;
nodes = (
(179,660,l),
(441,660,l),
(310,440,l)
);
}
);
width = 620;
}
);
}
{
color = 1;
glyphname = a.ss01;
layers = (
{
anchors = (
{
name = bottom;
pos = (314,0);
},
{
name = ogonek;
pos = (563,0);
},
{
name = top;
pos = (303,530);
}
);
layerId = "574EE4B9-5C1A-4E7E-9985-C08FACB65BD8";
shapes = (
{
closed = 1;
nodes = (
(347,-12,o),
(427,39,o),
(441,108,c),
(423,108,l),
(425,30,o),
(458,-2,o),
(524,-2,cs),
(538,-2,o),
(556,-1,o),
(563,0,c),
(563,74,l),
(539,74,ls),
(517,74,o),
(507,82,o),
(507,106,cs),
(507,356,ls),
(507,478,o),
(437,542,o),
(303,542,cs),
(151,542,o),
(89,468,o),
(83,372,c),
(173,372,l),
(179,426,o),
(205,464,o),
(303,464,cs),
(389,464,o),
(423,424,o),
(423,352,cs),
(423,306,l),
(245,296,ls),
(125,289,o),
(67,234,o),
(67,146,cs),
(67,52,o),
(134,-12,o),
(255,-12,cs)
);
},
{
closed = 1;
nodes = (
(195,62,o),
(155,90,o),
(155,146,cs),
(155,204,o),
(183,220,o),
(251,224,cs),
(423,234,l),
(423,214,ls),
(423,124,o),
(371,62,o),
(261,62,cs)
);
}
);
width = 620;
}
);
}
{
color = 1;
glyphname = acutecomb.case;
layers = (
{
anchors = (
{
name = _top;
pos = (268,740);
},
{
name = top;
pos = (268,938);
}
);
layerId = "574EE4B9-5C1A-4E7E-9985-C08FACB65BD8";
shapes = (
{
closed = 1;
nodes = (
(296,800,l),
(394,938,l),
(300,938,l),
(226,800,l)
);
}
);
width = 620;
}
);
}
{
color = 9;
glyphname = blackCircled;
layers = (
{
layerId = "574EE4B9-5C1A-4E7E-9985-C08FACB65BD8";
shapes = (
{
closed = 1;
nodes = (
(489,-12,o),
(600,121,o),
(600,370,cs),
(600,619,o),
(489,752,o),
(310,752,cs),
(130,752,o),
(20,619,o),
(20,370,cs),
(20,121,o),
(130,-12,o),
(310,-12,cs)
);
}
);
width = 620;
}
);
}
{
color = 9;
glyphname = blackCircledStroke;
layers = (
{
layerId = "574EE4B9-5C1A-4E7E-9985-C08FACB65BD8";
shapes = (
{
closed = 1;
nodes = (
(489,-12,o),
(600,121,o),
(600,370,cs),
(600,619,o),
(489,752,o),
(310,752,cs),
(130,752,o),
(20,619,o),
(20,370,cs),
(20,121,o),
(130,-12,o),
(310,-12,cs)
);
},
{
closed = 1;
nodes = (
(173,54,o),
(88,156,o),
(88,370,cs),
(88,584,o),
(173,686,o),
(310,686,cs),
(446,686,o),
(532,584,o),
(532,370,cs),
(532,156,o),
(446,54,o),
(310,54,cs)
);
}
);
width = 620;
}
);
}
{
color = 1;
glyphname = brevecomb.case;
layers = (
{
anchors = (
{
name = _top;
pos = (310,740);
},
{
name = top;
pos = (310,928);
}
);
layerId = "574EE4B9-5C1A-4E7E-9985-C08FACB65BD8";
shapes = (
{
closed = 1;
nodes = (
(400,790,o),
(454,834,o),
(460,928,c),
(396,928,l),
(392,880,o),
(368,856,o),
(310,856,cs),
(252,856,o),
(228,880,o),
(224,928,c),
(160,928,l),
(166,834,o),
(220,790,o),
(310,790,cs)
);
}
);
width = 620;
}
);
}
{
color = 1;
glyphname = caroncomb.alt;
layers = (
{
anchors = (
{
name = _topright;
pos = (233,530);
}
);
layerId = "574EE4B9-5C1A-4E7E-9985-C08FACB65BD8";
shapes = (
{
closed = 1;
nodes = (
(312,530,l),
(370,778,l),
(284,778,l),
(250,530,l)
);
}
);
width = 620;
}
);
}
{
color = 1;
glyphname = caroncomb.case;
layers = (
{
anchors = (
{
name = _top;
pos = (310,740);
},
{
name = top;
pos = (310,928);
}
);
layerId = "574EE4B9-5C1A-4E7E-9985-C08FACB65BD8";
shapes = (
{
closed = 1;
nodes = (
(356,790,l),
(460,928,l),
(386,928,l),
(300,824,l),
(320,824,l),
(234,928,l),
(160,928,l),
(264,790,l)
);
}
);
width = 620;
}
);
}
{
color = 1;
glyphname = circumflexcomb.case;
layers = (
{
anchors = (
{
name = _top;
pos = (310,740);
},
{
name = top;
pos = (310,928);
}
);
layerId = "574EE4B9-5C1A-4E7E-9985-C08FACB65BD8";
shapes = (
{
closed = 1;
nodes = (
(234,790,l),
(320,894,l),
(300,894,l),
(386,790,l),
(460,790,l),
(356,928,l),
(264,928,l),
(160,790,l)
);
}
);
width = 620;
}
);
}
{
color = 1;
glyphname = dieresiscomb.case;
layers = (
{
anchors = (
{
name = _top;
pos = (310,740);
},
{
name = top;
pos = (310,926);
}
);
layerId = "574EE4B9-5C1A-4E7E-9985-C08FACB65BD8";
shapes = (
{
closed = 1;
nodes = (
(442,806,o),
(466,830,o),
(466,866,cs),
(466,902,o),
(442,926,o),
(408,926,cs),
(374,926,o),
(350,902,o),
(350,866,cs),
(350,830,o),
(374,806,o),
(408,806,cs)
);
},
{
closed = 1;
nodes = (
(246,806,o),
(270,830,o),
(270,866,cs),
(270,902,o),
(246,926,o),
(212,926,cs),
(178,926,o),
(154,902,o),
(154,866,cs),
(154,830,o),
(178,806,o),
(212,806,cs)
);
}
);
width = 620;
}
);
}
{
color = 1;
glyphname = dotaccentcomb.case;
layers = (
{
anchors = (
{
name = _top;
pos = (310,740);
},
{
name = top;
pos = (310,932);
}
);
layerId = "574EE4B9-5C1A-4E7E-9985-C08FACB65BD8";
shapes = (
{
closed = 1;
nodes = (
(350,800,o),
(376,824,o),
(376,866,cs),
(376,908,o),
(350,932,o),
(310,932,cs),
(270,932,o),
(244,908,o),
(244,866,cs),
(244,824,o),
(270,800,o),
(310,800,cs)
);
}
);
width = 620;
}
);
}
{
color = 1;
glyphname = gravecomb.case;
layers = (
{
anchors = (
{
name = _top;
pos = (370,740);
},
{
name = top;
pos = (370,938);
}
);
layerId = "574EE4B9-5C1A-4E7E-9985-C08FACB65BD8";
shapes = (
{
closed = 1;
nodes = (
(404,800,l),
(330,938,l),
(236,938,l),
(334,800,l)
);
}
);
width = 620;
}
);
}
{
glyphname = idotaccent;
layers = (
{
anchors = (
{
name = bottom;
pos = (333,0);
},
{
name = ogonek;
pos = (558,0);
},
{
name = top;
pos = (333,761);
}
);
layerId = "574EE4B9-5C1A-4E7E-9985-C08FACB65BD8";
shapes = (
{
closed = 1;
nodes = (
(558,0,l),
(558,72,l),
(375,72,l),
(375,530,l),
(88,530,l),
(88,458,l),
(332,458,l),
(291,497,l),
(291,72,l),
(78,72,l),
(78,0,l)
);
},
{
closed = 1;
nodes = (
(373,629,o),
(399,653,o),
(399,695,cs),
(399,737,o),
(373,761,o),
(333,761,cs),
(293,761,o),
(267,737,o),
(267,695,cs),
(267,653,o),
(293,629,o),
(333,629,cs)
);
}
);
width = 620;
}
);
}
{
color = 9;
glyphname = leftRightArrow.ss07;
layers = (
{
layerId = "574EE4B9-5C1A-4E7E-9985-C08FACB65BD8";
shapes = (
{
closed = 1;
nodes = (
(211,303,l),
(409,303,l),
(409,181,l),
(602,342,l),
(408,503,l),
(408,381,l),
(212,381,l),
(212,503,l),
(18,342,l),
(211,181,l)
);
}
);
width = 620;
}
);
}
{
color = 1;
glyphname = macroncomb.case;
layers = (
{
anchors = (
{
name = _top;
pos = (310,740);
},
{
name = top;
pos = (310,900);
}
);
layerId = "574EE4B9-5C1A-4E7E-9985-C08FACB65BD8";
shapes = (
{
closed = 1;
nodes = (
(480,832,l),
(480,900,l),
(140,900,l),
(140,832,l)
);
}
);
width = 620;
}
);
}
{
color = 9;
glyphname = rightArrow.ss07;
layers = (
{
layerId = "574EE4B9-5C1A-4E7E-9985-C08FACB65BD8";
shapes = (
{
closed = 1;
nodes = (
(600,354,l),
(407,515,l),
(406,193,l)
);
},
{
closed = 1;
nodes = (
(530,315,l),
(530,393,l),
(20,393,l),
(20,315,l)
);
}
);
width = 620;
}
);
}
{
color = 1;
glyphname = ringcomb.case;
layers = (
{
anchors = (
{
name = _top;
pos = (310,740);
},
{
name = top;
pos = (310,964);
}
);
layerId = "574EE4B9-5C1A-4E7E-9985-C08FACB65BD8";
shapes = (
{
closed = 1;
nodes = (
(368,768,o),
(410,810,o),
(410,866,cs),
(410,922,o),
(368,964,o),
(310,964,cs),
(252,964,o),
(210,922,o),
(210,866,cs),
(210,810,o),
(252,768,o),
(310,768,cs)
);
},
{
closed = 1;
nodes = (
(281,818,o),
(262,837,o),
(262,866,cs),
(262,895,o),
(281,914,o),
(310,914,cs),
(339,914,o),
(358,895,o),
(358,866,cs),
(358,837,o),
(339,818,o),
(310,818,cs)
);
}
);
width = 620;
}
);
}
{
color = 1;
glyphname = slashlongcomb.case;
layers = (
{
anchors = (
{
name = _center;
pos = (310,369);
}
);
layerId = "574EE4B9-5C1A-4E7E-9985-C08FACB65BD8";
shapes = (
{
closed = 1;
nodes = (
(124,-12,l),
(580,752,l),
(496,752,l),
(40,-12,l)
);
}
);
width = 620;
}
);
}
{
color = 1;
glyphname = slashshortcomb.case;
layers = (
{
anchors = (
{
name = _center;
pos = (310,395);
}
);
layerId = "574EE4B9-5C1A-4E7E-9985-C08FACB65BD8";
shapes = (
{
closed = 1;
nodes = (
(490,440,l),
(490,520,l),
(130,350,l),
(130,270,l)
);
}
);
width = 620;
}
);
}
{
color = 1;
glyphname = strokeshortcomb.case;
layers = (
{
anchors = (
{
name = _center;
pos = (310,348);
}
);
layerId = "574EE4B9-5C1A-4E7E-9985-C08FACB65BD8";
shapes = (
{
closed = 1;
nodes = (
(489,314,l),
(490,382,l),
(131,382,l),
(130,314,l)
);
}
);
width = 620;
}
);
}
{
color = 1;
glyphname = tildecomb.case;
layers = (
{
anchors = (
{
name = _top;
pos = (310,740);
},
{
name = top;
pos = (310,941);
}
);
background = {
shapes = (
{
closed = 1;
nodes = (
(429,809,o),
(466,855,o),
(470,941,c),
(416,941,l),
(412,881,o),
(399,865,o),
(374,865,cs),
(358,865,o),
(344,875,o),
(324,893,cs),
(302,913,o),
(280,925,o),
(248,925,cs),
(192,925,o),
(152,880,o),
(150,793,c),
(204,793,l),
(206,851,o),
(224,867,o),
(248,867,cs),
(268,867,o),
(280,855,o),
(300,837,cs),
(321,818,o),
(344,809,o),
(370,809,cs)
);
}
);
};
layerId = "574EE4B9-5C1A-4E7E-9985-C08FACB65BD8";
shapes = (
{
closed = 1;
nodes = (
(429,805,o),
(466,852,o),
(470,941,c),
(416,941,l),
(412,883,o),
(399,868,o),
(374,868,cs),
(334,868,o),
(316,929,o),
(248,929,cs),
(192,929,o),
(152,883,o),
(150,793,c),
(204,793,l),
(206,849,o),
(224,864,o),
(248,864,cs),
(289,864,o),
(302,805,o),
(370,805,cs)
);
}
);
width = 620;
}
);
}
{
color = 9;
glyphname = upArrow.ss07;
layers = (
{
layerId = "574EE4B9-5C1A-4E7E-9985-C08FACB65BD8";
shapes = (
{
closed = 1;
nodes = (
(310,694,l),
(149,501,l),
(471,500,l)
);
},
{
closed = 1;
nodes = (
(349,18,l),
(349,624,l),
(271,624,l),
(271,18,l)
);
}
);
width = 620;
}
);
}
{
color = 9;
glyphname = upDownArrow.ss07;
layers = (
{
layerId = "574EE4B9-5C1A-4E7E-9985-C08FACB65BD8";
shapes = (
{
closed = 1;
nodes = (
(471,182,l),
(349,182,l),
(349,594,l),
(471,594,l),
(310,787,l),
(149,593,l),
(271,593,l),
(271,183,l),
(149,183,l),
(310,-11,l)
);
}
);
width = 620;
}
);
}
{
color = 1;
glyphname = zero.zero;
layers = (
{
layerId = "574EE4B9-5C1A-4E7E-9985-C08FACB65BD8";
shapes = (
{
closed = 1;
nodes = (
(147,219,l),
(514,461,l),
(474,521,l),
(107,279,l)
);
},
{
ref = zero;
}
);
width = 620;
}
);
}
